<?xml version="1.0" encoding="utf-8"?>
<!-- Generator: Adobe Illustrator 18.0.0, SVG Export Plug-In . SVG Version: 6.00 Build 0)  -->
<!DOCTYPE svg PUBLIC "-//W3C//DTD SVG 1.1//EN" "http://www.w3.org/Graphics/SVG/1.1/DTD/svg11.dtd">
<svg version="1.1" id="Lager_1" xmlns="http://www.w3.org/2000/svg" xmlns:xlink="http://www.w3.org/1999/xlink" x="0px" y="0px"
	 viewBox="0 0 346 478" enable-background="new 0 0 346 478" xml:space="preserve">
<path fill="#FFFFFF" d="M316.8,350.4L316.8,350.4L316.8,350.4l-0.8-0.9l-0.8,0.9c-0.1,0.1-0.2,0.2-0.2,0.2
	c23.8-25.3,29.6-56.6,29.6-81.1c0-11.5-1.3-21.5-2.6-28.6c-0.6-3.6-1.3-6.4-1.8-8.3l-0.8-3.1l-1.3,2.9
	c-18.8,40.4-40.5,56.4-56.5,62.5l-0.2,0.1l-0.1,0.1l-0.1,0l0,0l-0.3-1c-0.3-0.9-0.7-2.1-1.4-3.5c-1.2-2.4-3-4.9-5.6-5.7l1.5-2.9
	l-0.1-0.4c-0.4-1.4-1.8-6.1-5.3-12.8c-4.1-7.7-11-17.9-22.1-27.7l-0.4-0.4l-5.9,1.5c0,0,0,0,0,0h0l-1.9-5.7l-0.3-0.2l0,0l0.1-0.3
	l-1.6-4.8l-0.2-0.2c-0.7-0.7-3.6-3.6-8-7.5l0.3,0.3l3.4-4.3c0,0,0,0,0,0l0.3,0.2h0c1.2,0.9,6.1,4.6,13.2,8.3
	c8.3,4.3,19.5,8.5,31.6,8.5h0c1.2,0,2.4-0.1,3.5-0.1l1.2-0.1l0-0.1c1.8,7.8,7.1,13.8,14.1,14.7c0.6,0.1,1.2,0.1,1.9,0.1
	c0,0,0,0,0.1,0h0c0,0,0,0,0,0c0,0,0,0,0,0h0.1h0c8.6-0.1,16.4-7.9,18.3-18.6h0l0.1-0.9c0,0,0,0,0-0.1v0c0.2-1.3,0.3-2.5,0.3-3.8
	c0-10.5-6.1-19.3-14.8-20.5c-0.7-0.1-1.3-0.1-1.9-0.1h-0.1c-6.5,0-12.6,4.5-16,11.3l0.5-1l-1-0.5c-4.1-1.8-23.7-10.9-29-16.9
	l-0.4-0.4l0,0l0.3-0.5l4.8-8.7l1.1,0.5c1.2,0.6,5.8,2.8,8.4,3.2l0.1,0l4.4-0.4l0,0l0,0l-1.5,3l0.7,0.6c0.6,0.5,1.6,1.1,2.8,1.8
	c2.2,1.2,5.2,2.4,8.4,2.4h0c0,0,0,0,0,0c4.5,0,9.6-2.3,13.8-9.9l0.1-0.1l0.1-0.1c0.1-0.1,0.2-0.2,0.3-0.4l0.5-0.7l-0.1,0
	c0.3-0.6,0.7-1.4,1.1-2.4c0.9-2.6,1.9-6.5,1.9-12c0,0,0-0.1,0-0.1l0,0.3l1.7-1.2c0.8-0.5,1.7-1.3,2.7-2.4c2-2.2,4.1-5.4,4.1-9.7l0,0
	c0-3.7-1.6-8.2-6-13.5l1.5-4.9c0,0,0,0,0-0.1l0.3-0.9l-0.1,0c0-0.3,0-0.5,0-0.9c0,0,0,0,0,0v-0.4l0,0c-0.2-3.7-2.2-11.4-13.9-22.6
	l-0.3-0.3l-0.4,0l0-0.4l0.2,0.1l0,0l0.6,0.6c1.5,1.4,2.8,2.8,4,4.1l1,1.1l0.8-1.2l12.4-19l-3.1,1.1c-0.4,0.1-0.8,0.3-1.2,0.4
	c1.6-0.5,3.4-1.2,5.2-2.1c4-1.9,8.2-4.9,11.7-9.2c0,0.1-0.1,0.1-0.1,0.2l1.5,1.6c0.8-0.6,1.6-1.3,2.5-2.1c7-6.2,14-15.6,14-28.8
	c0-2.4-0.2-5-0.8-7.7l0-0.1l0-0.1c-0.2-0.6-1.4-3.8-3.3-7.3c-1.7-3.1-3.9-6.2-6.3-7.7l-2-1.2l0.3,2.3c0,0.1,0,0.2,0,0.3
	C328,30.1,319.4,27.1,314,26.7l-0.6,2.1c6.3,3.4,9.2,7.5,10.2,11.5l-0.7-0.2c0,0-0.1,0-0.1,0c0,0,0,0-0.1,0
	c-0.1-0.1-0.3-0.2-0.6-0.4c-0.5-0.3-1.3-0.7-2.4-1.1c-2.2-0.8-5.5-1.6-10.1-1.6c-1.8,0-3.8,0.1-6,0.4l-0.1,2.2
	c-1.7-0.4-3.4-0.6-5-0.6c0,0-0.1,0-0.1,0h0c-0.9,0-1.7,0.1-2.6,0.2l0.3,0l-0.5-1.2l0.4-13.2c0-0.4,0-0.7,0-1c0-8.9-4.8-14-9.6-16.9
	c-4.3-2.5-8.2-3.3-9.4-3.4c-0.1,0-0.1,0-0.1,0c0,0,0,0-0.1,0c-2.1-2.1-4.2-2.8-5.9-2.8c-1.4,0-2.6,0.4-3.4,0.8
	c-0.8,0.4-1.3,0.8-1.3,0.8c0,0,0,0,0,0c-4.1,0.2-8.7,4.4-12.4,8.6c-3.7,4.1-6.4,8.4-6.4,8.4c-4.7,5.4-6.2,12.2-6.2,18.8h0
	c0,0,0,0,0,0c0,2.1,0.2,4.3,0.4,6.3l-2.2-0.1c-0.5,2.1-0.8,4.4-0.8,6.7c0,0,0,0.1,0,0.1v0c0,7.7,2.6,15.9,5.1,22.1
	c2.3,5.5,4.5,9.5,5,10.3l0.1,0.2l5.4,4.7l0.2,0.3l1.1,3.9l3.7,5.9l0.1,0.1l2.5,7.6l0.2,0.2c2.9,2.4,5.6,5.4,7.6,7.7l-0.8,1.4
	L225.3,190l0,0l3.7-6.3l-1.5-0.3l0,0c-4.1-1.4-19-13.6-21.1-15.3l-0.2-0.2l0,0l0.2-0.9c0.3-1.3,0.9-3.8,0.9-6.8
	c0-6.2-2.3-14.3-13.5-16.5l-0.1,0h-0.1c-0.4,0-1.6,0.1-3.3,0.4c-2.1,0.4-4.9,1.1-7.8,2.5l0.5,1l-0.5-1c-5.2,2.6-10.7,7.7-12,17.4
	l0,0.2l0.1,0.2c0.5,1.7,1.1,3.3,1.7,4.9c-0.3-0.7-0.6-1.4-0.8-2.1l-0.3-0.9l-0.9,0.1c0,0,0,0,0,0c0-0.7,0.1-1.4,0.2-2.1l0-0.2
	l-0.1-0.2c-1.1-3.7-1.9-7.7-2.4-12l0-0.1l0-0.1c-0.2-0.7-1.4-4.4-1.3-9v-0.1l0,0c0-0.8,0.1-1.7,0.1-2.6l0-0.4l-0.3-0.3l0.2-0.2l0,0
	l2-0.9c3.4-1.5,9.9-4,15.2-4c1.8,0,3.4,0.3,4.7,1l0.6,0.3l0.6-0.4c1.6-1.3,6.6-4.9,12-4.9h0.1l0,0c3.4,0,7,1.5,9.9,5.8l0.2,0.3
	l0.3,0.1c1.2,0.5,5.8,2.5,10.6,4.8c5.5,2.8,11,5.9,12,8.3h0L226,148l0.4,1.6c0.3,1.3,0.9,3.2,1.8,5.5c1.6,3.9,4.4,8.7,8.7,12l1,1.1
	l19.6-33.7l-0.7-0.6c-4.9-5.8-6.5-9.5-6.5-12l-0.3-0.1h0.3c0-1.8,1.1-2.9,2.2-3.4c1-0.5,2-0.6,2.9-0.7l1.7-0.1l-0.7-1.5
	c-1.3-2.5-4.4-6.1-7.5-9.2c-1.9-1.9-3.7-3.6-5.1-4.9c-0.7-0.6-1.3-1.1-1.7-1.5c-0.2-0.2-0.4-0.3-0.5-0.4c0,0,0,0,0,0l-0.2-0.2
	l-1.4-4.3l-0.3-0.2c-4.6-3.7-11.1-4.7-16.8-4.7c0,0,0,0-0.1,0c0,0,0,0,0,0c0,0,0,0,0,0c-3.2,0-6,0.3-8.1,0.6c-1,0.2-1.9,0.3-2.5,0.4
	c-0.3,0.1-0.5,0.1-0.7,0.1c-0.1,0-0.1,0-0.2,0c0,0,0,0,0,0l0,0h0c-1.1-2-3.1-2.8-5.3-2.8c0,0-0.1,0-0.1,0c0,0,0,0,0,0
	c-2.5,0-5.1,0.9-7.2,1.8c-1,0.4-1.9,0.9-2.6,1.2c-0.3,0.2-0.6,0.3-0.7,0.4c-0.1,0-0.1,0.1-0.2,0.1l-0.2,0.1
	c-15.4,3.3-24.8,13.4-30.3,22.7c-0.9,1.5-1.7,2.9-2.4,4.4l0.7-1.5l-2.2,0.4c-10.1,2-16,12.3-19.5,22.3c-3.4,9.7-4.4,18.7-4.5,20.2
	l0,0.2c-1.3,3.8-1.8,6.8-1.8,9.1c0,3.4,1.2,5.1,1.9,5.8v0.2l0.6,0.2c0,0,0.1,0,0.1,0l0,0c-4,6.8-5.2,12.5-5.2,16.9
	c0,3,0.6,5.4,1.1,7.1c0.2,0.6,0.4,1.1,0.6,1.5l0.5,1l6.7-3v0c-0.5,3.3-0.8,6.4-0.8,9.1c0,14.9,7.1,20.6,10.6,22.5
	c0.9,0.5,1.5,0.7,1.8,0.8l0.3,0.2l6.5,8l3.7-2.2v0c0,0,0,0,0,0v0c0,6.6,3.3,12.5,6.6,16.7l0,0c1.6,2.1,3.2,3.7,4.4,4.9
	c0.6,0.6,1.1,1,1.5,1.3c0.2,0.1,0.3,0.2,0.4,0.3l0,0.1l0.3,0.2l-0.6,1.1c-2.2,4.2-11.1,21-19.8,37.6c2.3-4.4,4.7-8.9,6.9-13.1
	l0.1-0.1l0-0.1c0.3-1.3,0.5-2.5,0.5-3.6c0-3.7-1.6-6.3-3.3-8.1c-0.4-0.4-0.8-0.8-1.1-1.1l-2.2-1.8l0.3,2.8c0.2,1.6,0.3,3,0.3,4.3
	c0,0.2,0,0.1,0,0.1c0,5-1.4,7.7-3,9.2c-1.6,1.4-3.3,1.6-4,1.6h0c-0.2,0-0.2,0-0.3,0c0,0,0,0,0,0c0.8-2.5,1.1-4.8,1.1-7.1l-0.7,0h0.7
	c0-8.3-4.7-15.4-9.4-20.3l0,0c-4.3-4.5-8.3-7.2-9.3-7.8l-0.4-0.4c4.2-1.4,9.4-2.5,14.6-2.5c2.1,0,4.2,0.2,6.3,0.6l0.9-1.9
	c-10.2-8.9-31.5-32-31.5-71.6c0-7.3,0.7-15.1,2.4-23.5l0.6-3.2l-2.4,2.2c-1.2,1-2.7,2.5-4.5,4.3c-4.2,4.2-9.7,10.6-15.3,19
	c-10,15.2-19.9,37.1-21.8,65.6l-0.3-0.3l0,0l-0.2-0.3l0,0c-0.8-1.1-3.7-5.1-7.6-9c-4.6-4.7-10.5-9.3-16.2-9.3c-0.1,0-0.1,0-0.1,0
	c-4.8,0-9.4,3.4-12.6,13l-0.8,2.2l2.2-0.8c1.6-0.6,4-1.3,6.6-1.3l0.1,0c8.4,0,20,6.7,21.4,41.9c0,0.1,0,0.1,0,0.1l0,0l-0.3,1.2
	c-2.2-0.3-5.1-1.4-9-3.9l-0.1-0.1l-0.1,0c-0.1,0-0.6-0.2-1.1-0.4c-0.7-0.2-1.6-0.4-2.6-0.4c-0.1,0-0.1,0-0.1,0
	c-0.9,0-1.9,0.2-2.8,0.8l-2.1,1.4l2.5,0.5c1.1,0.2,2.4,0.6,3.8,1.3c2.8,1.4,5.6,3.9,5.6,8.5c0,0.1,0,0.1,0,0.1
	c0,1.4-0.3,2.9-0.8,4.7c0,0,0,0,0,0h0l0,0h0c0,0,0,0-0.1-0.1l-0.3-0.3h0c-0.1-0.2-0.3-0.4-0.6-0.6c-0.6-0.6-1.6-1.5-2.9-2.3
	c-2.1-1.4-5.2-2.7-9.3-3.2l-2.5-0.3l1.5,2c0.6,0.8,1.1,1.9,1.2,2.9c0,0.8-0.4,1.7-1.4,2.3c0,0,0,0,0,0v0l0,0c0,0,0,0-0.1-0.1l0,0
	c0-0.1-0.3-0.4-0.7-0.7c-0.5-0.5-1.3-1.1-2.3-1.8c-2.1-1.3-5.3-2.6-9.9-2.6c-1.9,0-4,0.2-6.3,0.7l-2.2,0.5l1.7,1.4
	c1.5,1.2,3.4,3.2,3.8,5.3c0,0,0,0,0,0c0,0-0.1,0-0.1,0v0c-0.4,0-2.2-0.3-4.7-0.2c-8.2,0-24.5,2-29.4,18l1.8,1.1
	c3.5-3.5,10.7-8,25.3-8.4c-0.1,0,6.1,0.5,12.4,2.4c6.2,2,12.4,5.4,12.5,11.5c0,0,0,0,0,0.1v0c0,0.8-0.1,1.6-0.4,2.6l-0.4,1.7
	c-0.8,0.1-1.8,0.2-2.8,0.2c-2.2,0-4.8-0.2-7.9-0.7c-0.1,0-0.2,0-0.3,0v0l0,0c-0.6-0.1-2.9-0.3-5.5-0.3c-0.1,0-0.3,0-0.4,0
	c-1.2,0-2.4,0.1-3.6,0.2l-0.2,2.2c1.4,0.4,2.8,1,3.9,1.6c0.9,0.6,1.4,1.1,1.5,1.8l-0.9,0.2v0.1c-0.4,0.1-0.9,0.3-1.5,0.5
	c-1.4,0.6-3.3,1.5-5.2,2.9c-3.3,2.4-6.8,6.4-8,12.5l-0.6,3.2l2.5-2.2c3.6-3.2,11.2-8.8,18.7-8.8l0.1,0c6.1,0,12.1,3.9,16,15.9l0,0
	c0,0,0,0,0,0l0,0c0,0-0.1,0-0.1,0l0,0c-0.3,0-0.9-0.1-1.8-0.1c-4.9,0-17.1,1.6-17.9,17.2l-0.2,3.2l2.1-2.4c2.7-3.2,8.1-8,15-8.1
	l0.2,0c5.3,0.1,11.6,3.1,18.2,12.2l0,0c0.2,0.5,2,6,2,12.6c0,4.5-0.9,9.4-3.7,13.6l-0.9,1.3l1.5,0.4c0.2,0.1,0.4,0.1,0.6,0.2
	c-0.5-0.2-1.1-0.3-1.7-0.5l-0.3-0.1l-0.3,0.1l-0.1-0.2l-0.4-0.1c-1.6-0.3-3.4-0.5-5.5-0.5c-0.1,0-0.1,0-0.1,0
	c-1.9,0-4.1,0.2-6.5,0.5l-1.7,0.2l2.8,4.4c0,0,0,0,0,0h0l0,0c0,0-0.1,0-0.1,0l0,0c-0.3,0-1.6-0.1-3.5-0.1v0c0,0,0,0,0,0c0,0,0,0,0,0
	c-3.9,0-10.1,0.5-15.4,3.2C37,415,33,419.1,32.1,426l-0.5,3.9l2.5-3.1c2.8-3.5,8.4-8.6,16.6-8.7l0.3,0c4.7,0.1,10.2,1.9,16.5,6.6
	l0.9,0.7l0.7-0.9c0.3-0.4,0.5-0.7,0.8-1c-0.5,0.6-0.9,1.2-1.3,1.8l0,0.1l0,0.1l-0.1,0l-0.1,0.2c-1.8,2.9-3.1,6.8-3.1,11.8
	c0,0.4,0,0.9,0,1.3l2.1,0.4c2.3-5.2,7.2-13,14.5-13.1c3.7,0,8.1,2.2,13.2,8l1.4,1.6l0.5-2c0.6-2.3,1.5-4.3,2.2-5.8
	c0.4-0.7,0.7-1.3,1-1.7c0.1-0.2,0.2-0.4,0.3-0.5c0,0,0-0.1,0-0.1l0.1-0.1c2.6-1.8,5.1-3.1,7.5-4.1l1.5-0.6l0,0l0.7-0.2
	c2.4-0.7,4.6-1,6.7-1c6.2,0,11.3,2.7,15.1,5.7l1.3,1l0.4-1.6c0.5-1.6,1.5-4.2,4.5-4.3c1.4,0,3.3,0.8,5.8,2.9l0,0l0.3,0.3l0.4,0
	c0.1,0,0.1,0,0.2,0c0.9,0,2.5-0.2,5.5-0.9l0.4,0l0,0c0.9,0.2,4.8,1,9.5,1h0c0,0,0.1,0,0.1,0h0.4l0,0c5.9-0.1,12.9-1.5,16.8-7
	l1.3-1.9l-1.5,0.1c5.6-0.5,9.4-1.5,10-1.6l0,0l1.1,0.3l0.1-0.3l1.8,1.2l0.1-0.1c0.6-0.6,1.2-1.3,1.7-2.1l0.3-0.4l-0.1-0.3l0.3-0.1
	l0.2-0.3c0.3-0.5,0.6-1,0.9-1.6l-0.8,2l2.6-1.2c3.2-1.5,5.9-3.5,7.8-5.4c2.4-2.3,3.8-4.2,3.9-4.5l0,0c2.3-3.1,3.3-5.8,3.3-8.1
	l-0.4-0.1h0.4c-0.1-4.8-4.2-8-8.3-10c-3.5-1.7-7-2.5-8-2.8l-0.4-0.1c5.1-3.2,11.6-5.7,19.9-6.1l0.1-2.2c-0.5-0.1-1-0.2-1.6-0.3
	c8.8,1.4,14.9,3.4,15.3,3.6l0,0l0.8,0.8l0.8-0.8c8.5-8.9,23.1-20.5,41.3-20.5l0.3,0c4.3,0,8.7,0.7,13.2,2.2l0.4,0.1l0.4-0.2
	c0.5-0.2,1.4-0.6,2.9-1.4c-0.3,0.2-0.6,0.3-0.9,0.5l-2,1.1l2,0.9c2.2,1,5.9,3.1,10.4,7.1l0.7,0.6l0.7-0.5c3.2-2.3,6.2-4.7,8.9-7.1
	c-0.2,0.2-0.4,0.3-0.6,0.5l-2.7,2.3l3.5-0.4c1.1-0.1,2.5-0.2,3.9-0.2c0.2,0,0.3,0,0.5,0c6.1,0,14.3,2.1,16.4,11l2.1,0
	c0.3-1.2,0.5-2.5,0.5-4C331.7,361.5,328.8,354.8,316.8,350.4z M315.6,68.2c0.4,1.5,0.6,2.9,0.6,4.2c0,5.8-3.3,9.7-3.4,9.8
	c-3.1,3.1-5.9,5.1-8.5,6.5l-0.5-2.1c-0.2,0-0.4,0-0.5,0c0,0,0,0,0,0c-2.8,0-4.5-0.9-5.7-1.9c-0.6-0.5-1-1-1.3-1.3
	c-0.1-0.2-0.2-0.3-0.3-0.4c0-0.1-0.1-0.1-0.1-0.1h0c-0.6-1.5-0.8-3-0.8-4.4c0-5.9,4.2-10.7,5.1-11.6l0.5-0.6l-0.4-0.7
	c0-0.1-0.1-0.1-0.1-0.2c1.9,3.7,4.3,4.4,5.5,4.4c0,0,0,0,0,0c0.4,0,0.6,0,0.8-0.1c0.1,0,0.2,0,0.2-0.1c0,0,0,0,0,0l0.1,0
	c3.5-0.6,6.4-1.5,8.9-2.6l-0.6,0.3L315.6,68.2z M209.2,288.1l0.2,0.1c8.2,6,9.4,13.2,9.4,16.4c0,0.1,0,0.2,0,0.2c0,0.1,0,0.2,0,0.2
	v1.2l1.2-0.1c0.3,0,0.7,0,1,0h0.1l0,0c3.9,0,6.4,1.7,7.8,3.9c0.7,1.2,1.2,2.5,1.5,3.9l-1.7,3c-4.7,8.3-11.7,12-18.3,13.5l-0.2-1.1
	c-0.2-1-0.5-2.8-0.5-4.8c0-2,0.3-4.2,1.3-5.9c1-1.7,2.7-2.9,5.4-2.9c0,0,0,0,0,0c0.6,0,1.2,0.1,1.9,0.2l2,0.3l-0.9-1.9
	c-1-2.3-3.5-6.2-8.2-6.3c-0.1,0-0.2,0-0.2,0c-1.9,0-4.2,0.6-6.9,2.1l3.9-7.9l-2,0.2c-1.7,0.2-4,0.6-5.7,2.3l-0.1,0.1
	c2.4-5,5.2-10.5,8.3-16l0.5-0.9l-0.1-0.1l0.2,0l0,0L209.2,288.1z M253.6,338.4l-0.3-1.2l0,0l5.1-6.6l0.8-0.1l0,0
	c1.4-0.2,4.6-0.9,8.1-2.3c4.5-1.8,9.3-4.8,10.9-9.7l0.3-1l-1-0.4c-0.4-0.2-0.8-0.3-1.2-0.5c4.2,1.8,9.3,3,15.4,3c0.1,0,0.3,0,0.4,0
	l0.4,0l-0.3,0.3C284.3,327.6,272.1,335.2,253.6,338.4z M181.1,185.1l0.2,0.1c1.4,0.7,2.6,1,3.6,1c0.9,0,1.6-0.2,2-0.3
	c0.4-0.1,0.7-0.3,0.7-0.3l1.4-0.8l-1.2-1c-0.3-0.3-0.6-0.5-0.8-0.7c5,4.3,17.3,14.6,24.3,18.7v0l-3,5.2c-2.3-1.5-4.8-3-7.3-4.5
	c-0.1,0-10.6-5.3-19.9-17.3L181.1,185.1l-0.2-0.1c-0.4-0.3-0.8-0.5-1.2-0.9v0l0.2-0.6l-0.4-0.5c-0.2-0.2-0.3-0.5-0.5-0.7
	c0.6,0.9,1.3,1.8,1.9,2.6L181.1,185.1z"/>
<linearGradient id="SVGID_1_" gradientUnits="userSpaceOnUse" x1="129.2018" y1="236.2228" x2="120.9203" y2="178.2523">
	<stop  offset="0" style="stop-color:#FFFFFF"/>
	<stop  offset="1" style="stop-color:#95B0BE"/>
</linearGradient>
<path fill="url(#SVGID_1_)" d="M124.7,160c0,0-21,19.3-8.3,72.9l5.5,9.9c0,0,6.1-19.9,21-2.2C142.9,240.6,115.8,206.3,124.7,160z"/>
<linearGradient id="SVGID_2_" gradientUnits="userSpaceOnUse" x1="121.6595" y1="309.2211" x2="113.2603" y2="250.4261">
	<stop  offset="0" style="stop-color:#FFFFFF"/>
	<stop  offset="1" style="stop-color:#95B0BE"/>
</linearGradient>
<path fill="url(#SVGID_2_)" d="M98.7,234.5c0,0,8.3,3.3,10.5,5.5c0,0-4.4,51.3,29.3,67.4c0,0-31.5-21.5-21,8.8
	C117.5,316.2,92.6,289.7,98.7,234.5z"/>
<linearGradient id="SVGID_3_" gradientUnits="userSpaceOnUse" x1="283.2705" y1="312.7953" x2="304.8026" y2="300.0969">
	<stop  offset="0" style="stop-color:#FFFFFF"/>
	<stop  offset="1" style="stop-color:#95B0BE"/>
</linearGradient>
<path fill="url(#SVGID_3_)" d="M273.2,307.9c0,0,24.8-2.2,32-7.2c0,0-6.1,13.3-9.4,15.5C295.8,316.2,282.6,313.5,273.2,307.9z"/>
<linearGradient id="SVGID_4_" gradientUnits="userSpaceOnUse" x1="182.8695" y1="325.2666" x2="198.8803" y2="284.4114">
	<stop  offset="0" style="stop-color:#FFFFFF"/>
	<stop  offset="1" style="stop-color:#95B0BE"/>
</linearGradient>
<path fill="url(#SVGID_4_)" d="M193.7,282c0,0-22.1,42.5-26.5,53l24.3-11c0,0,14.9-33.7,17.7-35.3
	C209.1,288.6,200.3,281.4,193.7,282z"/>
<linearGradient id="SVGID_5_" gradientUnits="userSpaceOnUse" x1="183.1862" y1="343.6609" x2="257.1674" y2="342.0046">
	<stop  offset="0" style="stop-color:#FFFFFF"/>
	<stop  offset="1" style="stop-color:#95B0BE"/>
</linearGradient>
<path fill="url(#SVGID_5_)" d="M165,344.9c0,0,43.1,23.7,104.9-11c0,0-25.9,14.4-81.2,0L165,344.9z"/>
<linearGradient id="SVGID_6_" gradientUnits="userSpaceOnUse" x1="327.8757" y1="292.7477" x2="285.916" y2="359.552">
	<stop  offset="0" style="stop-color:#FFFFFF"/>
	<stop  offset="1" style="stop-color:#95B0BE"/>
</linearGradient>
<path fill="url(#SVGID_6_)" d="M298.6,365.9c0,0,62.9-37.5,40.9-133.1c0,0-1.7,88.9-53,123.7L298.6,365.9z"/>
<linearGradient id="SVGID_7_" gradientUnits="userSpaceOnUse" x1="168.1248" y1="391.0222" x2="210.6368" y2="368.938">
	<stop  offset="0" style="stop-color:#FFFFFF"/>
	<stop  offset="1" style="stop-color:#95B0BE"/>
</linearGradient>
<path fill="url(#SVGID_7_)" d="M222.4,373.6c0,0-46.9-13.8-72.3,17.1c0,0,29.3-1.1,28.2,9.4C178.2,400.1,189.3,368.7,222.4,373.6z"
	/>
<linearGradient id="SVGID_8_" gradientUnits="userSpaceOnUse" x1="92.9567" y1="277.8233" x2="139.8852" y2="387.139">
	<stop  offset="0" style="stop-color:#FFFFFF"/>
	<stop  offset="1" style="stop-color:#95B0BE"/>
</linearGradient>
<path fill="url(#SVGID_8_)" d="M143.4,401.2c0,0-5.5-39.8-30.4-72.3c0,0-36.4-61.3-27.6-102.7c0,0-13.8,37,12.1,88.3
	c0,0,32,55.2,28.7,75.1h7.7L143.4,401.2z"/>
<linearGradient id="SVGID_9_" gradientUnits="userSpaceOnUse" x1="299.5312" y1="223.4716" x2="300.6355" y2="251.0781">
	<stop  offset="0" style="stop-color:#FFFFFF"/>
	<stop  offset="1" style="stop-color:#95B0BE"/>
</linearGradient>
<path fill="url(#SVGID_9_)" d="M305.9,209.7c2.3,3.2,3.8,7.4,3.8,12.1c0,9.8-6.2,17.7-13.8,17.7c-4.7,0-8.9-3-11.4-7.6
	c1.2,9.7,7.6,17,15.2,17c8.5,0,15.5-9.1,15.5-20.4C315.1,220.1,311.3,212.9,305.9,209.7z"/>
<linearGradient id="SVGID_10_" gradientUnits="userSpaceOnUse" x1="191.0025" y1="158.7166" x2="191.8244" y2="179.2631">
	<stop  offset="0" style="stop-color:#FFFFFF"/>
	<stop  offset="1" style="stop-color:#95B0BE"/>
</linearGradient>
<path fill="url(#SVGID_10_)" d="M204.7,151.7c0,6.7-5.4,12.1-12.1,12.1c-6.7,0-12.1-5.4-12.1-12.1c0-0.9,0.1-1.8,0.3-2.6l-6.8,3.8
	c-0.1,0.7-0.1,1.4-0.1,2.1c0,9.8,2.8,27.6,11.8,21.8c2.1-6.7,8.1-9.1,8.1-9.1h12.1l2.7,1.6"/>
<linearGradient id="SVGID_11_" gradientUnits="userSpaceOnUse" x1="207.8429" y1="175.964" x2="223.8543" y2="185.3499">
	<stop  offset="0" style="stop-color:#FFFFFF"/>
	<stop  offset="1" style="stop-color:#95B0BE"/>
</linearGradient>
<polygon fill="url(#SVGID_11_)" points="228.5,184.8 211.3,173.2 197.5,172.1 225.1,190.9 "/>
<linearGradient id="SVGID_12_" gradientUnits="userSpaceOnUse" x1="271.8468" y1="215.5155" x2="250.867" y2="201.713">
	<stop  offset="0" style="stop-color:#FFFFFF"/>
	<stop  offset="1" style="stop-color:#95B0BE"/>
</linearGradient>
<path fill="url(#SVGID_12_)" d="M241.7,201.9l13.8-2.8c0,0,18.8,14.4,28.2,16.6l-11.6,3.9C272.1,219.6,250,211.3,241.7,201.9z"/>
<linearGradient id="SVGID_13_" gradientUnits="userSpaceOnUse" x1="294.8309" y1="82.9358" x2="299.2477" y2="64.1648">
	<stop  offset="0" style="stop-color:#FFFFFF"/>
	<stop  offset="1" style="stop-color:#95B0BE"/>
</linearGradient>
<path fill="url(#SVGID_13_)" d="M310.7,84.9c0,0-20.4,19.3-29.3-13.3c0,0,0-14.4,16-15.5c0,0,1.1,9.4,4.4,11c0,0-11.6,8.3-3.9,18.8
	C298,86,309.6,87.6,310.7,84.9z"/>
<linearGradient id="SVGID_14_" gradientUnits="userSpaceOnUse" x1="268.8542" y1="140.0159" x2="272.9798" y2="122.4821">
	<stop  offset="0" style="stop-color:#FFFFFF"/>
	<stop  offset="1" style="stop-color:#95B0BE"/>
</linearGradient>
<path fill="url(#SVGID_14_)" d="M269.3,114.7l-12.1,21l16,12.1l9.9-14.4l-3.9-2.8l-5-5C274.3,125.7,273.7,114.1,269.3,114.7z"/>
<linearGradient id="SVGID_15_" gradientUnits="userSpaceOnUse" x1="276.3958" y1="152.8811" x2="279.7818" y2="138.4906">
	<stop  offset="0" style="stop-color:#FFFFFF"/>
	<stop  offset="1" style="stop-color:#95B0BE"/>
</linearGradient>
<path fill="url(#SVGID_15_)" d="M283.1,133.5c0,0,2.2,8.8,0.6,11l-5.5,14.4l-7.7-3.9L283.1,133.5z"/>
<linearGradient id="SVGID_16_" gradientUnits="userSpaceOnUse" x1="262.5844" y1="178.8423" x2="247.1253" y2="200.9267">
	<stop  offset="0" style="stop-color:#FFFFFF"/>
	<stop  offset="1" style="stop-color:#95B0BE"/>
</linearGradient>
<polygon fill="url(#SVGID_16_)" points="241.7,201.9 255.5,199.2 266.5,178.2 259.4,173.2 "/>
<linearGradient id="SVGID_17_" gradientUnits="userSpaceOnUse" x1="251.9998" y1="222.5363" x2="282.3659" y2="231.37">
	<stop  offset="0" style="stop-color:#FFFFFF"/>
	<stop  offset="1" style="stop-color:#95B0BE"/>
</linearGradient>
<path fill="url(#SVGID_17_)" d="M283.1,223.5c0,0-2.2,10.5,0,13.8c0,0-22.1,0.6-49.7-17.1C233.4,220.2,263.2,230.6,283.1,223.5z"/>
<linearGradient id="SVGID_18_" gradientUnits="userSpaceOnUse" x1="203.6339" y1="194.077" x2="186.5184" y2="173.0968">
	<stop  offset="0" style="stop-color:#FFFFFF"/>
	<stop  offset="1" style="stop-color:#95B0BE"/>
</linearGradient>
<path fill="url(#SVGID_18_)" d="M185.4,182.1l23.7,18.2c0,0-18.8-26.5-17.7-31.5C191.5,168.8,184.8,172.1,185.4,182.1z"/>
<linearGradient id="SVGID_19_" gradientUnits="userSpaceOnUse" x1="294.5976" y1="120.5588" x2="305.6396" y2="104.3635">
	<stop  offset="0" style="stop-color:#FFFFFF"/>
	<stop  offset="1" style="stop-color:#95B0BE"/>
</linearGradient>
<polygon fill="url(#SVGID_19_)" points="292.3,118.6 297.5,108.3 310.7,104.6 297.5,124.5 "/>
<linearGradient id="SVGID_20_" gradientUnits="userSpaceOnUse" x1="217.2071" y1="447.5412" x2="234.1375" y2="401.1655">
	<stop  offset="0" style="stop-color:#C7EAFB"/>
	<stop  offset="1" style="stop-color:#0092B9"/>
</linearGradient>
<path fill="url(#SVGID_20_)" d="M223.1,452c0,0-14.7-14-8.8-34.6c0,0,13.3-22.8,29.4-4.4c0,0-21.3-3.7-18.4,22.8
	c0,0-3.7-8.1-0.7-16.9c0,0-8.1,14,4.4,31.7c0,0-10.3-9.6-11-26.5C218,424.1,214.3,439.5,223.1,452z"/>
<linearGradient id="SVGID_21_" gradientUnits="userSpaceOnUse" x1="265.4927" y1="364.0804" x2="231.6304" y2="394.2602">
	<stop  offset="0" style="stop-color:#C7EAFB"/>
	<stop  offset="1" style="stop-color:#0092B9"/>
</linearGradient>
<path fill="url(#SVGID_21_)" d="M226.8,400.5c0,0,9.6-30.9,32.4-33.1c0,0,8.1-5.9,14-0.7c0,0-10.3-2.2-12.5,4.4
	c0,0-23.6-2.9-28,28.7L226.8,400.5z"/>
<linearGradient id="SVGID_22_" gradientUnits="userSpaceOnUse" x1="105.7295" y1="344.4731" x2="122.2919" y2="379.2544">
	<stop  offset="0" style="stop-color:#C7EAFB"/>
	<stop  offset="1" style="stop-color:#0092B9"/>
</linearGradient>
<path fill="url(#SVGID_22_)" d="M112.5,370.3c0,0-0.6-9.9-5.5-15.5c0,0,16.6,20.4,5.5-1.7c0,0-1.7-10.5-22.1-23.2
	c0,0,31.5-1.7,35.9,59.6c0,0-9.4-5.5-11.6-16.6L112.5,370.3z"/>
<linearGradient id="SVGID_23_" gradientUnits="userSpaceOnUse" x1="134.7536" y1="454.795" x2="134.7536" y2="447.0656">
	<stop  offset="0" style="stop-color:#C7EAFB"/>
	<stop  offset="1" style="stop-color:#0092B9"/>
</linearGradient>
<path fill="url(#SVGID_23_)" d="M123.6,462c0,0,1.7-18.8,14.9-16.6c0,0,12.1,7.2,5.5,15.5c0,0,1.1-9.4-4.4-4.4c0,0-5,0.6-4.4,9.9
	c0,0-3.9-9.9,5-13.3C140.1,453.1,128.5,448.2,123.6,462z"/>
<linearGradient id="SVGID_24_" gradientUnits="userSpaceOnUse" x1="244.4801" y1="436.7469" x2="246.1364" y2="415.215">
	<stop  offset="0" style="stop-color:#C7EAFB"/>
	<stop  offset="1" style="stop-color:#0092B9"/>
</linearGradient>
<path fill="url(#SVGID_24_)" d="M240.6,448.7c0,0-14.2-14-5.5-24.8c0,0-1.5-8.5,8.7-10.9c0,0,5.7-3.5,7.9,5.9c0,0,13.3,6.1,1.1,15.5
	c0,0-5,1.7-3.3-9.9c0,0-7.2,9.9,3.9,20.4c0,0-9.4-3.3-8.3-21.5c0,0-6.6,11.6,2.2,23.7c0,0-7.2-1.7-7.7-22.1
	C239.5,425,232.9,428.8,240.6,448.7z"/>
<linearGradient id="SVGID_25_" gradientUnits="userSpaceOnUse" x1="84.6143" y1="435.9227" x2="76.8854" y2="430.9541">
	<stop  offset="0" style="stop-color:#C7EAFB"/>
	<stop  offset="1" style="stop-color:#0092B9"/>
</linearGradient>
<path fill="url(#SVGID_25_)" d="M86.6,446.5c0,0,2.2-16-13.2-15.5c0,0,8.3-11.6,22.6,4.4c0,0-1.1,7.2,2.8,9.4c0,0-5.5-7.7-9.9-9.9
	C88.8,434.9,91,438.8,86.6,446.5z"/>
<linearGradient id="SVGID_26_" gradientUnits="userSpaceOnUse" x1="262.1698" y1="384.8321" x2="246.1594" y2="389.2488">
	<stop  offset="0" style="stop-color:#C7EAFB"/>
	<stop  offset="1" style="stop-color:#0092B9"/>
</linearGradient>
<path fill="url(#SVGID_26_)" d="M243.9,398.5c0,0,1.1-3.3,14.4-4.4c0,0,1.7-9.4,7.2-12.1c0,0-8.3,0.6-9.4,5.5c0,0,5.5-7.2,14.4-12.7
	c0,0-2.8,2.2-6.1,1.7C264.3,376.4,243.9,375.8,243.9,398.5z"/>
<linearGradient id="SVGID_27_" gradientUnits="userSpaceOnUse" x1="183.0475" y1="436.3699" x2="162.6198" y2="418.1507">
	<stop  offset="0" style="stop-color:#C7EAFB"/>
	<stop  offset="1" style="stop-color:#0092B9"/>
</linearGradient>
<path fill="url(#SVGID_27_)" d="M159.4,423.9c0,0,23.7,5.5,29.3,16.6c0,0-3.9-11.6-13.8-19.9C174.9,420.6,165,424.4,159.4,423.9z"/>
<linearGradient id="SVGID_28_" gradientUnits="userSpaceOnUse" x1="211.1387" y1="414.5561" x2="196.7838" y2="399.097">
	<stop  offset="0" style="stop-color:#C7EAFB"/>
	<stop  offset="1" style="stop-color:#0092B9"/>
</linearGradient>
<path fill="url(#SVGID_28_)" d="M174.9,420.6c0,0,18.2,6.6,23.7,21.5c0,0,3.3-25.4,8.3-20.4c0,0,6.6-28.2,19.3-35.9
	c0,0-14.9,9.4-22.6,29.8l-2.2-8.3l-7.7,3.9l-7.2,7.2l1.7-5l-9.4,2.2L174.9,420.6z"/>
<linearGradient id="SVGID_29_" gradientUnits="userSpaceOnUse" x1="104.2517" y1="448.7066" x2="104.8038" y2="430.4884">
	<stop  offset="0" style="stop-color:#C7EAFB"/>
	<stop  offset="1" style="stop-color:#0092B9"/>
</linearGradient>
<path fill="url(#SVGID_29_)" d="M102.6,440.4c0,0,4.4,8.3-2.2,14.9c0,0,8.8-5.5,7.7-17.1L102.6,440.4z"/>
<linearGradient id="SVGID_30_" gradientUnits="userSpaceOnUse" x1="120.4426" y1="446.2951" x2="120.8818" y2="431.8004">
	<stop  offset="0" style="stop-color:#C7EAFB"/>
	<stop  offset="1" style="stop-color:#0092B9"/>
</linearGradient>
<path fill="url(#SVGID_30_)" d="M114.2,451.5c0,0,5.5-10.5,14.9-8.3c0,0,1.1-5-14.9-5.5C114.2,437.7,109.2,443.8,114.2,451.5z"/>
<linearGradient id="SVGID_31_" gradientUnits="userSpaceOnUse" x1="29.5309" y1="385.6659" x2="78.1153" y2="382.9054">
	<stop  offset="0" style="stop-color:#C7EAFB"/>
	<stop  offset="1" style="stop-color:#0092B9"/>
</linearGradient>
<path fill="url(#SVGID_31_)" d="M21.4,388c0,0,39.8,26.5,46.9-1.7l-3.3-1.1c0,0,8.3-11.6,0.6-16.6c0,0-3.3,21.5-33.7,8.8
	c0,0,16,9.4,29.3,5c0,0-2.8,6.1-19.3,2.2c0,0,2.8,6.1,19.9,4.4C61.7,389.1,49,399.6,21.4,388z"/>
<linearGradient id="SVGID_32_" gradientUnits="userSpaceOnUse" x1="54.1819" y1="397.162" x2="79.5788" y2="383.3593">
	<stop  offset="0" style="stop-color:#C7EAFB"/>
	<stop  offset="1" style="stop-color:#0092B9"/>
</linearGradient>
<path fill="url(#SVGID_32_)" d="M38.5,406.2c0,0,16.6,0,22.1-2.2l11.6,1.7c0,0,11-20.4-3.3-34.8c0,0,0,15.5-3.9,14.4
	c0,0,13.3,2.2-8.3,14.4C56.7,399.6,45.7,404.6,38.5,406.2z"/>
<linearGradient id="SVGID_33_" gradientUnits="userSpaceOnUse" x1="66.3451" y1="350.7734" x2="84.0125" y2="357.9507">
	<stop  offset="0" style="stop-color:#C7EAFB"/>
	<stop  offset="1" style="stop-color:#0092B9"/>
</linearGradient>
<path fill="url(#SVGID_33_)" d="M84.9,380.8c0,0-3.3-17.1-22.1-18.2c0,0,7.2-3.3,14.4,1.1l-1.1-8.8c0,0-12.7-16.6-31.5-23.2
	c0,0,21.5,7.7,34.2,16l3.9-4.4c0,0,0-8.3-14.4-9.4c0,0,12.1-3.9,22.6,6.6c0,0-14.4,2.2-8.8,16c0,0-8.3,8.8,7.2,18.8
	C89.3,375.3,84.9,374.2,84.9,380.8z"/>
<linearGradient id="SVGID_34_" gradientUnits="userSpaceOnUse" x1="40.8689" y1="306.2034" x2="67.9216" y2="329.9435">
	<stop  offset="0" style="stop-color:#C7EAFB"/>
	<stop  offset="1" style="stop-color:#0092B9"/>
</linearGradient>
<path fill="url(#SVGID_34_)" d="M28,302.4c0,0,32.6-0.6,33.1,18.2c0,0-2.8,5.5-8.3,5.5C52.9,326.2,60.6,312.4,28,302.4z"/>
<linearGradient id="SVGID_35_" gradientUnits="userSpaceOnUse" x1="82.7098" y1="300.3437" x2="104.9146" y2="319.8295">
	<stop  offset="0" style="stop-color:#C7EAFB"/>
	<stop  offset="1" style="stop-color:#0092B9"/>
</linearGradient>
<path fill="url(#SVGID_35_)" d="M91.5,312.4c0,0-6.1-16-17.1-17.7c0,0,11.6-2.8,23.2,19.9L91.5,312.4z"/>
<linearGradient id="SVGID_36_" gradientUnits="userSpaceOnUse" x1="72.5816" y1="311.0647" x2="97.6926" y2="333.1008">
	<stop  offset="0" style="stop-color:#C7EAFB"/>
	<stop  offset="1" style="stop-color:#0092B9"/>
</linearGradient>
<path fill="url(#SVGID_36_)" d="M89.3,327.3c0,0,6.1-8.3-27.1-21.5c0,0,19.9,12.1,19.9,17.7L89.3,327.3z"/>
<linearGradient id="SVGID_37_" gradientUnits="userSpaceOnUse" x1="62.5217" y1="251.3005" x2="98.3785" y2="282.7666">
	<stop  offset="0" style="stop-color:#C7EAFB"/>
	<stop  offset="1" style="stop-color:#0092B9"/>
</linearGradient>
<path fill="url(#SVGID_37_)" d="M81,261c0,0-2.2-25.9-23.7-28.2c0,0,23.7,7.7,17.7,49.1l7.7-3.3L81,261z"/>
<linearGradient id="SVGID_38_" gradientUnits="userSpaceOnUse" x1="206.176" y1="315.8203" x2="217.0256" y2="325.3414">
	<stop  offset="0" style="stop-color:#C7EAFB"/>
	<stop  offset="1" style="stop-color:#0092B9"/>
</linearGradient>
<path fill="url(#SVGID_38_)" d="M220.2,315.1c0,0-15.5-21.5-20.4,8.8C199.7,323.9,204.7,303.5,220.2,315.1z"/>
<linearGradient id="SVGID_39_" gradientUnits="userSpaceOnUse" x1="130.7948" y1="277.6694" x2="127.4821" y2="301.4105">
	<stop  offset="0" style="stop-color:#C7EAFB"/>
	<stop  offset="1" style="stop-color:#0092B9"/>
</linearGradient>
<path fill="url(#SVGID_39_)" d="M134.6,304.6c0,0,20.4-13.3,3.9-35.9c0,0,8.3,23.7-3.9,29.3c0,0,4.4-7.2,1.7-13.3
	c0,0-1.7,9.4-6.1,11l-4.4-5c0,0,16.6-24.8-8.3-28.7c0,0,13.8,3.3,5.5,16.6c0,0,2.8,4.4-2.8,3.9l-3.3,0.6
	C116.9,283.1,123,299.7,134.6,304.6z"/>
<linearGradient id="SVGID_40_" gradientUnits="userSpaceOnUse" x1="334.4371" y1="63.3519" x2="328.364" y2="95.3737">
	<stop  offset="0" style="stop-color:#FFFFFF"/>
	<stop  offset="1" style="stop-color:#95B0BE"/>
</linearGradient>
<path fill="url(#SVGID_40_)" d="M320.7,98.1c0,0,17.7-12.7,7.7-37l12.1-1.1C340.5,60,343.8,88,320.7,98.1z"/>
<linearGradient id="SVGID_41_" gradientUnits="userSpaceOnUse" x1="223.8577" y1="108.6259" x2="173.6156" y2="121.8766">
	<stop  offset="0" style="stop-color:#FFFFFF"/>
	<stop  offset="1" style="stop-color:#FEDCBD"/>
</linearGradient>
<path fill="url(#SVGID_41_)" d="M167.2,139c0,0,1.1-9.9,7.7-12.1c0,0-2.8-14.4,6.1-16c0,0,6.6-19.3,44.2-14.4
	c0,0-28.7,2.8-34.8,12.7c0,0-9.4,8.8-7.7,14.9c0,0,19.3-9.9,25.4,2.2c0,0-15.5-1.7-19.3,9.4C188.7,135.7,182.1,130.2,167.2,139z"/>
<linearGradient id="SVGID_42_" gradientUnits="userSpaceOnUse" x1="147.4931" y1="165.2697" x2="151.3578" y2="121.1009">
	<stop  offset="0" style="stop-color:#FFFFFF"/>
	<stop  offset="1" style="stop-color:#FEDCBD"/>
</linearGradient>
<path fill="url(#SVGID_42_)" d="M162.8,119.1c0,0-9.9,18.2-8.8,41.4c0,0-3.3-19.9-0.6-30.9c0,0-17.1,23.2-17.7,43.6
	C135.7,173.2,136.8,125.2,162.8,119.1z"/>
<linearGradient id="SVGID_43_" gradientUnits="userSpaceOnUse" x1="193.9812" y1="329.1145" x2="223.243" y2="327.4582">
	<stop  offset="0" style="stop-color:#FFFFFF"/>
	<stop  offset="1" style="stop-color:#FEDCBD"/>
</linearGradient>
<path fill="url(#SVGID_43_)" d="M230.1,314c0,0-8.3,24.8-39.8,14.9l-1.7,5c0,0,38.1,7.2,43.6,6.1c0,0,2.8-11-2.2-13.3V314z"/>
<linearGradient id="SVGID_44_" gradientUnits="userSpaceOnUse" x1="276.1357" y1="182.5563" x2="268.9588" y2="177.5876">
	<stop  offset="0" style="stop-color:#FFFFFF"/>
	<stop  offset="1" style="stop-color:#FEDCBD"/>
</linearGradient>
<path fill="url(#SVGID_44_)" d="M275.9,163.8c0,0,8.3,8.3,11.6,7.7l-13.2,22.1c0,0-9.9,1.1-13.8-3.3L275.9,163.8z"/>
<linearGradient id="SVGID_45_" gradientUnits="userSpaceOnUse" x1="295.6952" y1="154.8861" x2="301.7687" y2="164.8245">
	<stop  offset="0" style="stop-color:#FFFFFF"/>
	<stop  offset="1" style="stop-color:#FEDCBD"/>
</linearGradient>
<path fill="url(#SVGID_45_)" d="M303,176c0,0-0.6-21.5-9.4-31.5c0,0,10.5,12.7,11.6,18.2C305.2,162.7,311.8,168.3,303,176z"/>
<linearGradient id="SVGID_46_" gradientUnits="userSpaceOnUse" x1="251.1291" y1="77.9237" x2="240.6391" y2="53.0789">
	<stop  offset="0" style="stop-color:#FFFFFF"/>
	<stop  offset="1" style="stop-color:#FEDCBD"/>
</linearGradient>
<path fill="url(#SVGID_46_)" d="M241.1,41.8c0,0,4.4,24.3,11.6,33.7c0,0-8.3,0.6-11.6-8.8C241.1,66.7,236.2,46.2,241.1,41.8z"/>
<linearGradient id="SVGID_47_" gradientUnits="userSpaceOnUse" x1="259.4278" y1="19.128" x2="284.2723" y2="18.5759">
	<stop  offset="0" style="stop-color:#FEDCBD"/>
	<stop  offset="0.5385" style="stop-color:#FFFFFF"/>
	<stop  offset="1" style="stop-color:#FEDCBD"/>
</linearGradient>
<path fill="url(#SVGID_47_)" d="M251.1,25.8c0,0,11.6-32,37.5-11c0,0,3.9,8.3,0.6,14.9c0,0-11-23.2-21-9.4
	C268.2,20.3,259.9,17.5,251.1,25.8z"/>
<linearGradient id="SVGID_48_" gradientUnits="userSpaceOnUse" x1="236.4895" y1="137.9895" x2="247.5309" y2="149.583">
	<stop  offset="0" style="stop-color:#FFFFFF"/>
	<stop  offset="1" style="stop-color:#FEDCBD"/>
</linearGradient>
<path fill="url(#SVGID_48_)" d="M238.4,167.7l18.8-32l-5.5-11.6l-16,24.8l-8.8,0.6C226.8,149.5,229.6,165.5,238.4,167.7z"/>
<linearGradient id="SVGID_49_" gradientUnits="userSpaceOnUse" x1="318.799" y1="63.4631" x2="304.4451" y2="63.0954">
	<stop  offset="0" style="stop-color:#FFFFFF"/>
	<stop  offset="1" style="stop-color:#FEDCBD"/>
</linearGradient>
<path fill="url(#SVGID_49_)" d="M297.5,56.2c0,0,5.9-1.7,6.3,2c0,0,4.8,4.8,14.4,0.4l3.7,4.4c0,0-10.3,9.2-18,7
	C303.7,70,299.7,65.2,297.5,56.2z"/>
<linearGradient id="SVGID_50_" gradientUnits="userSpaceOnUse" x1="293.1846" y1="30.2788" x2="292.8158" y2="33.9602">
	<stop  offset="0" style="stop-color:#FFFFFF"/>
	<stop  offset="1" style="stop-color:#FEDCBD"/>
</linearGradient>
<path fill="url(#SVGID_50_)" d="M289.4,41.6l7-2.2v-8.8l-7.2-0.9C289.2,29.7,287.9,39.1,289.4,41.6z"/>
<linearGradient id="SVGID_51_" gradientUnits="userSpaceOnUse" x1="243.0207" y1="302.164" x2="258.8475" y2="317.2543">
	<stop  offset="0" style="stop-color:#FFFFFF"/>
	<stop  offset="1" style="stop-color:#FEDCBD"/>
</linearGradient>
<path fill="url(#SVGID_51_)" d="M232.3,340l21-1.7l4.8-7c0,0,19.1-2.9,21-13.6c0,0-12.9-3.3-20.2-18.8l23.2-3.3c0,0-2.9-9.9-8.5-11
	l-54.8,21.7c0,0,14.4-5.5,11.4,20.4C230.1,326.7,235.3,332,232.3,340z"/>
<path fill="#231F20" d="M225.1,349.4L225.1,349.4c0,0-11.3,2.8-25.3,2.8c-11.6,0-24.8-1.9-34.9-8.7c1.1-2.7,4.8-11.5,9.6-22
	c5.7-12.5,12.9-27.2,18.7-35.9c0.3-0.5,0.2-1.2-0.3-1.5c-0.5-0.3-1.2-0.2-1.5,0.3c-11.9,17.9-28.8,59-28.8,59.1
	c-0.2,0.5,0,1,0.4,1.3c10.8,7.6,24.8,9.6,36.9,9.6c14.3,0,25.8-2.8,25.8-2.8c0.6-0.1,1-0.7,0.8-1.3
	C226.2,349.6,225.6,349.2,225.1,349.4z M120.2,242.1c1.3,2.4,2.5,5.4,2.4,6.8c0,0.6,0.5,1.1,1.1,1.1c0.6,0,1.1-0.5,1.1-1.1
	c-0.1-4.4-5.3-12.3-5.3-12.4c-5.3-11.5-7-22.8-7-32.9c0-20,7.1-34.5,7.1-34.5c0.3-0.5,0-1.2-0.5-1.5c-0.5-0.3-1.2,0-1.5,0.5
	c0,0.1-7.3,14.9-7.3,35.5c0,10.3,1.8,22,7.3,33.9C117.7,237.7,118.9,239.7,120.2,242.1z M317.5,349.5c22.6-25.2,28.2-56,28.1-79.9
	c0-23.2-5.1-40.1-5.2-40.2c-0.1-0.4-0.5-0.8-1-0.8c-0.5,0-0.9,0.2-1.1,0.7c-18.7,41.7-40.3,58.1-56.5,64.4c-0.7-2.3-2.6-7.3-6.5-9.3
	l0.9-1.9c0.1-0.2,0.1-0.5,0.1-0.8c0-0.1-5.3-21.7-28.3-41.8c-0.3-0.2-0.6-0.3-1-0.2l-4.9,1.2l-1.6-4.7l4.6-7.9
	c8.5,4.5,20.4,9.3,33.3,9.3c1.3,0,2.6-0.1,3.9-0.2c2.1,7.6,7.5,13.5,14.8,14.5c0.7,0.1,1.4,0.1,2.1,0.1c9.7,0,18-8.9,19.7-20.6
	l-1.1-0.2l1.1,0.1c0.2-1.3,0.3-2.6,0.3-3.9c0-10.9-6.3-20.3-15.7-21.6c-0.7-0.1-1.4-0.1-2.1-0.1c-6.4,0-12.3,4-16,10
	c-1.8-0.8-6.9-3.1-12.5-6c-6.4-3.3-13.5-7.5-16.2-10.5l4.2-7.6c0.9,0.5,6,2.9,9,3.3l0.2,0l2.5-0.2l-0.6,1.2c-0.2,0.4-0.1,1,0.3,1.3
	c0.1,0.1,5.6,5,12.7,5.1c0,0,0.1,0,0.1,0c4.9,0,10.3-2.6,14.6-10.4c0.5-0.7,3.8-5.5,3.9-15.6c1.4-0.9,8.5-5.4,8.5-13.8
	c0-3.9-1.6-8.5-5.9-13.7l1.3-4.2c0-0.1,0.3-0.9,0.3-2.3c0-3.2-1.3-9.3-8.7-18l12.3-18.8c0.1-0.2,0.2-0.4,0.2-0.5
	c0.6-0.3,1.2-0.5,1.7-0.8c0,0,0.1,0,0.1,0c0.1,0,0.3,0,0.4-0.1v0c0.1-0.1,28.6-11.5,28.7-38.9c0-2.5-0.3-5.2-0.8-8l0-0.2
	c0,0-1.3-3.7-3.4-7.5c-2.1-3.7-4.7-7.6-8.3-8.8c-2.8-13.1-12.7-15.3-17.9-15.2c-2,0-3.3,0.3-3.4,0.3c-0.5,0.1-0.8,0.5-0.9,1
	c0,0.5,0.2,0.9,0.7,1.1c7.4,3,11.1,6.6,12.8,10.3c-2.1-1-6-2.3-12-2.3c-3.5,0-7.8,0.4-12.8,1.7c0,0-0.1,0-0.1,0l0.4-12.9
	c0-0.3,0-0.7,0-1c0-9.4-5.1-14.9-10.1-17.8c-4.2-2.5-8.4-3.3-9.6-3.6c-2.2-2.1-4.5-2.9-6.5-2.8c-2.6,0-4.5,1.2-5.2,1.7
	c-4.6,0.5-9.2,4.8-12.8,8.9c-3.7,4.3-6.4,8.4-6.4,8.5c-4.8,5.6-6.4,12.7-6.4,19.4c0,0.4,0,0.9,0,1.3c-0.1,0.1-0.2,0.2-0.3,0.4
	c-1.6,3.5-2.2,7.4-2.2,11.3c0,16,10.4,33.1,10.4,33.2l0.2,0.3l5.3,4.6l1,3.7l0.1,0.3l3.6,5.8l2.5,7.6l0.4,0.5
	c2.7,2.1,5.2,4.9,7.2,7.2l-10.9,18.7c-4.5-5.5-5.9-9-5.8-10.8c0-1.5,0.6-2,1.6-2.5c1-0.5,2.3-0.6,3.1-0.6c0.4,0,0.7,0,0.7,0
	c0.3,0,0.7-0.1,0.9-0.3c0.2-0.2,0.3-0.6,0.3-0.9c-0.6-3.3-4.5-7.5-8.3-11.4c-3.2-3.2-6.4-6-7.3-6.8l-1.4-4.1l-0.3-0.5
	c-4.9-4.2-11.9-5.1-17.9-5.1c-5,0-9.3,0.7-11,1.1c-1.4-2-3.7-2.7-5.9-2.6c-4.9,0-10.2,3-11.2,3.6c-17.2,3.8-27,15.7-32.4,25.8
	c-0.2-0.1-0.3-0.1-0.5-0.1c-11.4,1.6-17.8,12.8-21.4,23.2c-3.4,9.8-4.4,19.2-4.6,20.4c-1.3,4-1.8,7-1.8,9.4c0,3.7,1.2,5.6,2.2,6.6
	c-3.7,6.6-4.8,12.2-4.8,16.6c0,6.4,2.3,10,2.4,10.2c0.3,0.5,0.9,0.6,1.4,0.4l4.8-2.1c-0.3,2.6-0.5,5-0.5,7.3
	c0,18.6,10.9,23.5,13,24.3l6.4,7.8c0.3,0.4,1,0.5,1.4,0.3l2.1-1.3c1,11.2,10.2,19.7,12.9,21.9c-1.3,2.4-5.4,10.1-10.5,19.8
	c-0.9-7-7-10-7.1-10.1c-0.4-0.2-0.8-0.1-1.2,0.1c-0.3,0.2-0.5,0.7-0.4,1.1c0.5,2.6,0.7,4.8,0.7,6.7c-0.1,7.4-2.9,9.1-4.7,9.5
	c0.5-2,0.7-3.9,0.7-5.8c-0.1-14.6-13.3-24.9-17.8-28.1c3.7-1,7.9-1.8,12.2-1.8c4.1,0,8.3,0.7,12.1,2.7c0.5,0.3,1.2,0.1,1.5-0.4
	c0.3-0.5,0.1-1.2-0.4-1.5c0,0-2.2-1.4-5.6-4.4c-10.2-9-30.7-31.8-30.7-70.4c0-8.1,0.9-16.9,3-26.4c0.1-0.5-0.1-0.9-0.5-1.2
	c-0.4-0.2-0.9-0.2-1.3,0.1c-0.1,0.1-39.1,30.2-44.2,89c-3.6-4.9-13.6-17-23.5-17.2c-5.9,0-11.2,4.6-14.5,16.2
	c-0.1,0.4,0,0.9,0.4,1.2c0.4,0.3,0.8,0.3,1.2,0.1c0,0,0.9-0.5,2.4-1.1c1.5-0.5,3.6-1.1,5.9-1.1c7.7,0,18.9,5.6,20.4,40.8
	c-1.9-0.5-4.4-1.5-7.7-3.6l-0.1-0.1c-0.1,0-2-0.9-4.4-0.9c-1.8,0-4.2,0.7-5.3,3.1c-0.2,0.3-0.2,0.7,0,1c0.2,0.3,0.5,0.5,0.9,0.6
	c0,0,2.6,0.2,5.3,1.5c2.6,1.3,5,3.4,5,7.6c0,0.8-0.1,1.6-0.3,2.5c-2.3-2.1-7.3-5.5-15.4-5.5c-0.5,0-0.9,0.3-1,0.7
	c-0.2,0.4,0,0.9,0.4,1.2c0,0,0.7,0.5,1.4,1.4c0.7,0.8,1.3,1.9,1.3,2.6c0,0.3-0.1,0.5-0.2,0.8c-1.6-1.6-5.8-4.7-13-4.7
	c-2.6,0-5.5,0.4-8.9,1.3c-0.4,0.1-0.7,0.5-0.8,0.9c-0.1,0.4,0.1,0.8,0.5,1.1c0,0,1.2,0.8,2.4,2c0.8,0.7,1.6,1.6,2.1,2.5
	c-0.8-0.1-1.9-0.1-3.1-0.1c-9.1-0.1-29,2.7-31.6,24.4c-0.1,0.6,0.3,1.1,0.9,1.2c0.6,0.1,1.1-0.2,1.3-0.7c0,0,0.2-0.6,0.9-1.6
	c2.1-3.1,8.3-9.9,26.3-10.3c0.1,0,6.1,0.5,12.1,2.4c6.2,2,11.8,5.3,11.7,10.5c0,1-0.2,2-0.6,3.2c-0.6,0.1-1.2,0.1-2,0.1
	c-2.1,0-4.7-0.2-7.9-0.7c-0.1,0-2.7-0.3-5.8-0.3c-3.1,0-6.6,0.2-8.8,1.6c-0.4,0.2-0.6,0.7-0.5,1.1c0.1,0.4,0.4,0.8,0.9,0.9
	c0,0,2.3,0.4,4.5,1.1c1.1,0.4,2.2,0.8,3,1.3c0.1,0.1,0.3,0.2,0.4,0.3c-3.9,1.3-14.5,6.2-15.4,19.9c0,0.5,0.2,0.9,0.7,1.1
	c0.4,0.2,0.9,0.1,1.2-0.2c0,0,2.5-2.7,6.4-5.3c3.8-2.7,8.9-5.3,13.7-5.3c5.4,0,10.7,3,14.5,13.6c-0.1,0-0.3,0-0.4,0
	c-2.6,0-7.3,0.4-11.5,3.2c-4.1,2.7-7.6,7.9-7.5,16.7c0,0.6,0,1.2,0,1.8c0,0.5,0.4,0.9,0.8,1c0.5,0.1,0.9-0.1,1.2-0.5
	c0,0,1.6-2.5,4.5-5.1c2.9-2.5,6.9-5,11.5-5c2.3,0,4.8,0.6,7.4,2.1c0,0.2,0,0.4,0,0.8c-0.1,2.6-0.7,8.7-10.2,10.4
	c-0.6,0.1-1,0.7-0.9,1.3c0.1,0.5,0.6,0.9,1.1,0.9c0.1,0,0.1,0,0.2,0c9.8-1.6,11.8-8.4,12-11.8c0.1,0.2,0.9,3.1,0.8,6.3
	c0,3.1-0.8,6.1-3.1,7.3c-0.4,0.2-0.7,0.8-0.5,1.2c0.1,0.5,0.6,0.8,1.1,0.8c0,0,1,0,2,0.3c1,0.3,1.5,0.7,1.5,1.1
	c0,0.2-0.1,0.7-0.5,1.3l-0.1,0.2c0,0-0.2,0.5-0.7,1.5c-1.5,2.7-5.5,8.2-15.2,8.3c-2.8,0-6-0.5-9.8-1.6c-0.6-0.2-1.2,0.2-1.4,0.7
	c-0.2,0.6,0.2,1.2,0.7,1.4c4,1.2,7.5,1.7,10.5,1.7c13.5,0,17.5-10,17.9-11.1c0.5-0.8,0.8-1.6,0.8-2.4c0-2.1-1.8-2.9-3.1-3.2
	c1.7-2.1,2.2-5,2.2-7.5c0-1.6-0.2-3.1-0.4-4.3c1.7,1.6,3.4,3.5,5.1,5.9c0.3,0.9,1.9,6.1,1.9,12.1c0,4.6-1,9.6-4.1,13.6
	c-1.7-0.3-3.5-0.5-5.7-0.5c-2.5,0-5.3,0.2-8.4,0.8c-0.4,0.1-0.7,0.3-0.8,0.6c-0.2,0.3-0.1,0.7,0.1,1l1.6,2.6c-0.4,0-0.9,0-1.5,0
	c-3.9,0-10.4,0.5-16,3.4c-5.6,2.8-10.3,8.3-10.3,17.7c0,0.2,0,0.5,0,0.7c0,0.5,0.4,0.9,0.8,1c0.1,0,0.2,0,0.2,0c0.4,0,0.8-0.2,1-0.6
	c0,0,1.5-2.8,4.5-5.6c3-2.8,7.4-5.6,13.2-5.6c4.5,0,9.9,1.7,16.2,6.5c-1.7,3-2.9,6.8-2.9,11.7c0,1.8,0.2,3.8,0.6,5.9
	c0.1,0.5,0.5,0.9,1,0.9c0,0,0,0,0.1,0c0.5,0,0.9-0.3,1-0.8c0,0,1.3-4.2,3.9-8.3c1-1.5,2.1-3,3.4-4.3c0.1,0,0.2,0.1,0.3,0.1
	c0,0,3,0.6,6,2.5c3,2,5.8,5,5.9,10c0,0.2,0,0.4,0,0.7c0,0.6,0.5,1.1,1.1,1.1c0,0,0,0,0,0c0.6,0,1.1-0.5,1.1-1.1c0-0.2,0-0.5,0-0.7
	c-0.1-9.8-9-13.4-12.3-14.4c1.7-1.2,3.6-2,5.7-2c3.6,0,8.1,2.2,13.6,9c-0.1,0.7-0.1,1.4-0.1,2.1c0,2.8,0.7,5.8,2.8,8.4
	c0.2,0.3,0.5,0.4,0.9,0.4c0.1,0,0.1,0,0.2,0c0.4-0.1,0.7-0.3,0.9-0.7c0,0,0.8-2,2.5-4.1c1.7-2.1,4.1-4,7.3-4c0.8,0,1.7,0.1,2.6,0.4
	c0.6,0.2,1.2-0.2,1.4-0.7c0.2-0.6-0.2-1.2-0.7-1.4c-1.1-0.3-2.2-0.5-3.3-0.5c-6,0.1-9.5,4.9-11,7.6c-1-1.7-1.3-3.6-1.3-5.5
	c0-0.5,0.1-1.1,0.1-1.6c0.2-0.3,0.3-0.7,0.1-1.1c0.4-2.1,1-4.1,1.8-5.7c0.8-1.8,1.6-3.2,1.9-3.6c5.9-4.1,11.1-5.6,15.7-5.6
	c6.8,0,12.2,3.4,16,6.8c3.8,3.4,5.7,6.9,5.8,6.9c0.3,0.5,1,0.7,1.5,0.4c0.5-0.3,0.7-1,0.4-1.5c0,0-2.1-3.6-6-7.2
	c0-0.1,0.1-0.2,0.1-0.3c0,0,0.2-1.1,0.8-2.2c0.6-1.1,1.4-2,2.8-2c1,0,2.6,0.6,4.9,2.5c0.2,0.3,0.4,0.5,0.7,0.6
	c0.4,0.2,0.8,0.2,1.3,0.2c1,0,2.7-0.2,5.6-0.9c1,0.2,5,1,9.7,1c6.4,0,14.6-1.4,18.8-8.2c0.1-0.2,0.2-0.5,0.1-0.8
	c3.6-0.4,6.3-1,7.6-1.3c-0.5,1-1.1,2-1.9,3c-0.3,0.4-0.3,1,0.1,1.4c0.2,0.2,0.5,0.4,0.8,0.4c0.2,0,0.4,0,0.6-0.2
	c0-0.1,4.2-2.4,7.1-6.8c9.4-3.1,14.7-11.2,14.8-11.2c2.3-3.1,3.4-5.9,3.5-8.5c0.2-0.1,0.3-0.2,0.4-0.4c0,0,1.1-1.9,2.7-3.7
	c1.5-1.9,3.7-3.5,4.8-3.4c0.3,0,0.6,0.1,0.8,0.3c0.2,0.2,0.5,0.2,0.8,0.2c0.3-0.1,0.6-0.2,0.7-0.5c0,0,4.9-7.5,13.5-15
	c8.6-7.5,20.7-15,35.1-14.9c4.3,0,8.9,0.7,13.6,2.2c0.1,0,0.9,0.2,2.4,0.9c2.2,1,5.9,3.1,10.5,7.3c0,0,0,0,0,0
	c0.1,0.1,0.2,0.2,0.3,0.3c3.4,3.2,7.2,7.5,11.3,13.3c-3.5-2.7-8-5.3-12.8-5.4c-1.9,0-3.9,0.5-5.7,1.5c-1.7-1.4-6.5-4.8-12.2-4.8
	c-3.2,0-6.7,1.2-9.8,4.4c-0.8-0.1-2.3-0.3-4.2-0.3c-3.7,0-9,0.6-13.4,3.8c-4.4,3.1-7.8,8.7-7.9,18.1c-0.4,0-0.8,0-1.3,0
	c-7.2,0-28.8,1.9-35.9,23.5c-0.1,0-0.3,0-0.4,0c-1.5,0-3.3,1.1-4.5,4.1c-1.2,3.1-2.1,8.2-2.1,17.2c0,0.6,0.5,1.1,1.1,1.1
	c0.6,0,1.1-0.5,1.1-1.1c0-8.8,0.9-13.8,1.9-16.4c1.1-2.6,2-2.7,2.4-2.7c0.2,0,0.3,0,0.4,0.1c0.1,0,0.1,0.1,0.1,0
	c0.3,0.2,0.7,0.2,1,0.1c0.3-0.1,0.6-0.4,0.7-0.7c6.1-21.2,27-23,34.1-23c0.7,0,1.3,0,1.7,0c0.4,0,0.6,0,0.6,0c0.3,0,0.6-0.1,0.9-0.3
	c0.2-0.2,0.4-0.5,0.3-0.8c0-0.3,0-0.6,0-0.8c0.1-17.8,12.1-19.8,19.1-19.9c1.3,0,2.4,0.1,3.2,0.2c0.8,0.1,1.2,0.2,1.2,0.2
	c0.4,0.1,0.8-0.1,1-0.3c2.8-3.2,5.8-4.1,8.6-4.2c2,0,3.9,0.5,5.6,1.3c-13.8,4.4-17,14.9-17.6,17.8c-0.1,0-0.3,0-0.4,0
	c-3.2,0-6.9,0.3-11,0.9c-0.6,0.1-1,0.7-0.9,1.3c0.1,0.6,0.7,1,1.3,0.9c4-0.7,7.5-0.9,10.6-0.9c10.4,0,16.2,3,19.5,6
	c1.6,1.5,2.6,2.9,3.2,4c0.6,1.1,0.7,1.7,0.8,1.7c0.3,1,0.4,2,0.4,2.8c0,2.3-1,4-1.9,5.2c-0.1,0.2-0.2,0.3-0.4,0.4
	c-0.6-4-2.8-6.8-5.7-8.4c-3.4-1.9-7.7-2.5-11.7-2.5c-5.8,0-11.1,1.2-12.6,1.5c-1-1.1-2.1-2.3-3.3-3.5c-0.4-0.4-1.1-0.4-1.6,0
	c-0.4,0.4-0.4,1.1,0,1.6c8.9,8.9,11.7,15.2,11.7,19.4c0,4.1-2.6,6.6-5.4,8.2c-0.8,0.4-1.5,0.8-2.2,1c1.7-2.4,2.5-4.5,2.5-6.4
	c-0.2-5.1-4.9-7.5-6.8-8.3c0,0,0-0.1,0-0.1c0-2.2-0.5-3.8-1.5-4.9c-1-1.1-2.3-1.4-3.5-1.4c-1.3,0-2.5,0.4-3.4,0.7
	c-3.4-6.4-11.7-6.9-15.1-6.9c-1,0-1.6,0.1-1.6,0.1l-0.3,0.1c-13.2,5.4-15.5,15.1-15.5,20.6c0,2.6,0.5,4.3,0.5,4.4
	c0.2,0.6,0.8,0.9,1.4,0.8c0.6-0.2,0.9-0.8,0.8-1.4v0c0,0-0.4-1.5-0.4-3.8c0.1-5,1.8-13.4,14-18.5c0.2,0,0.6,0,1.2,0
	c3.2,0,10.5,0.7,13.1,5.6c-0.9,0.5-2.2,1.2-3.5,2.3c-2.2,1.7-4.7,4-4.7,7.2c0,0.4,0.1,0.8,0.2,1.3c-1,1.1-2.9,3.9-2.9,8.3
	c0,4.6,2.2,10.9,9.4,18.7c0.2,0.2,0.5,0.3,0.8,0.3c0.3,0,0.5-0.1,0.8-0.3c0.4-0.4,0.5-1.1,0-1.6c-7-7.5-8.8-13.2-8.8-17.2
	c0-2.5,0.7-4.3,1.4-5.5c0.3-0.6,0.7-1,0.9-1.3c0.2-0.3,0.4-0.4,0.4-0.4c0.3-0.3,0.5-0.8,0.3-1.2c-0.2-0.4-0.2-0.8-0.2-1.1
	c-0.1-1.7,1.8-3.9,3.9-5.4c2-1.5,4.1-2.5,4.1-2.5c0,0,0,0,0,0c0,0,0,0,0,0c0,0,1.8-0.9,3.4-0.9c1.5,0.2,2.6,0.3,2.8,4
	c0,0.3,0,0.5,0,0.8c0,0.5,0.3,1,0.8,1.1c0,0,1.6,0.5,3.1,1.6c1.6,1.1,3,2.7,3,4.9c0,1.8-1,4.4-4.3,7.7c-0.3,0.3-0.4,0.9-0.2,1.3
	c0.2,0.4,0.6,0.6,1,0.6c0.1,0,0.1,0,0.2,0c0,0,1.7-0.3,3.8-1.1c0.6,5.8,5.6,9.3,10.2,11.2c5,2.1,9.9,2.6,10,2.6c0,0,0.1,0,0.1,0
	c0.5,0,1-0.4,1.1-1c0.1-0.6-0.4-1.2-1-1.2c0,0-4.7-0.5-9.4-2.5c-4.7-1.9-8.9-5.1-9-10.1c0.2-0.1,0.3-0.1,0.5-0.2
	c3.2-1.7,6.6-4.9,6.6-10.1c0-4.1-2.1-9.2-7.4-15.6c2.2-0.5,6.5-1.2,11-1.2c7.8,0.1,15.3,2.1,15.3,11c0,0.4,0.2,0.8,0.6,1
	c0.2,0.1,0.3,0.1,0.5,0.1c0.2,0,0.4-0.1,0.6-0.2c0.1-0.1,4.8-3,4.9-8.9c0-1.1-0.2-2.2-0.5-3.4c0-0.2-3.6-12.2-23-13.2
	c0.1-0.3,0.2-0.6,0.3-1.1c1.2-3.9,5.1-12,17.5-15.3c0.1,0,0.3-0.1,0.4-0.2c1.9,1.1,3,2.2,3,2.1c0.4,0.3,0.9,0.4,1.4,0.1
	c1.7-1.2,3.4-1.6,5.2-1.6c4.1,0,8.6,2.6,12,5.4c3.4,2.7,5.6,5.4,5.7,5.4c0.4,0.4,1,0.5,1.5,0.2c0.5-0.3,0.6-1,0.3-1.5
	c-5.5-9.5-10.9-16-15.6-20.5c1.7-1.2,3.4-2.5,5-3.8c0.2,0,0.3,0.1,0.5,0v0c0,0,2.9-0.7,6.7-0.7c6.9,0.1,15.9,2,16.2,14
	c0,0.5,0.3,0.9,0.8,1c0.1,0,0.2,0,0.3,0c0.4,0,0.7-0.2,0.9-0.5c0-0.1,2.3-3.7,2.3-8.7C332.8,361.1,329.5,354,317.5,349.5z
	 M239.7,233.4l-0.9-2.6l-0.2-0.4c0,0-2.7-2.8-7.2-6.8l2.1-2.7c1.5,1.1,5,3.6,9.7,6.3L239.7,233.4z M301.4,208.1
	C301.4,208.1,301.4,208.1,301.4,208.1c0.7,0,1.3,0,1.9,0.1c7.9,1.1,13.8,9.3,13.8,19.4c0,1.2-0.1,2.4-0.2,3.6h0
	c-1.5,10.9-9.3,18.7-17.5,18.6c-0.6,0-1.2,0-1.8-0.1c-7.9-1.1-13.8-9.3-13.8-19.4c0-1.2,0.1-2.4,0.2-3.6
	C285.5,215.9,293.2,208.1,301.4,208.1z M254.8,198.5l-5.3,0.7c-0.6,0.1-1,0.6-1,1.2c0.1,0.6,0.6,1,1.1,1c0,0,0.1,0,0.1,0l5.3-0.7
	c5.7,6.3,25.2,15.2,29.4,17.1c-0.5,1-1,2.1-1.4,3.3c-2-0.5-8.2-2.3-15.4-5.1c-8.5-3.4-18.3-8.3-24.1-14.4l39.3-66.4
	c0.6,1.2,0.8,2.4,0.9,3.5c0,2.3-0.9,4-0.9,4c-0.3,0.5-0.1,1.1,0.4,1.4c0.4,0.3,0.8,0.6,1.2,0.8L254.8,198.5z M286.3,146.3
	c2.3,1.8,3.6,3.3,4.5,4.4c0.6,0.8,0.9,1.4,1.1,1.8c0.2,0.4,0.2,0.5,0.2,0.5l0,0.2c2,6,2.5,11.1,2.5,14.9c0,0.3,0,0.6,0,0.8
	c-1.5,1.1-2.9,1.5-4.4,1.5c-3,0-6.2-1.8-8.5-3.8c-2.4-1.9-3.9-3.8-3.9-3.8c-0.1-0.1-0.3-0.2-0.4-0.3L286.3,146.3z M297.8,122.6
	c-1.2-1.3-2.6-2.7-4.1-4.2l4.8-9.9c1.5-0.1,5.3-0.6,9.9-2.2L297.8,122.6z M330.9,46.7c0-1.2-0.1-2.3-0.3-3.3
	c2.1,1.3,4.3,4.3,5.9,7.3c1.9,3.4,3.1,6.6,3.3,7.1c0.5,2.6,0.7,5.1,0.7,7.5c0,12.8-6.8,22-13.6,28c-0.8,0.7-1.6,1.4-2.4,2
	c3.1-3.8,5.5-8.8,6.8-15.2c0,0,1-3.5,1-8.4c0-4.2-0.8-9.5-4-14.2c2.3-4.2,2.6-8.2,2.6-9.9C331,47.1,331,46.7,330.9,46.7z
	 M313.9,27.8c5.5,0.5,14,3.2,14.9,19c0,0.1,0,0.3,0,0.8c-0.1,3.5-1.1,17.1-21.9,20.9l-0.2,0c0,0-0.2,0.1-0.7,0.1
	c-1.4-0.1-5.4-0.7-6.9-12.3c0.4-0.1,0.9-0.2,1.5-0.2c1.1,0.1,1.8,0.2,2.1,1.8l0.2,0.4c0.1,0.1,2.3,3.5,7.2,3.6c2.7,0,5.9-1.1,9.9-4
	l0.2-0.2c0-0.1,5-6.2,5.1-13.9C325.1,38.5,322.4,32.4,313.9,27.8z M295,83.3c0.1,0.2,2.3,4.5,8.4,4.5c0.2,0,0.4,0,0.5,0
	c-2.5,1.3-4.8,1.8-6.7,1.8c-4.3,0-7.4-2.5-9.5-5.1c-2.1-2.6-3.1-5.3-3.1-5.3c-0.9-3.1-1.3-5.8-1.3-8.1c0-7,3.6-10.4,7.3-12.3
	c1.8-0.9,3.7-1.4,5.1-1.7c0.5-0.1,0.9-0.2,1.3-0.2c0.5,4.2,1.5,7.2,2.6,9.3c-0.9,1-5.3,6-5.4,12.4C294.1,80,294.3,81.6,295,83.3z
	 M303.3,85.5c-2.5,0-4-0.8-5-1.6c-0.5-0.4-0.8-0.8-1.1-1.1c-0.2-0.3-0.3-0.4-0.3-0.4c-0.5-1.3-0.7-2.6-0.7-3.9c0-3,1.2-5.8,2.5-7.8
	c0.8-1.3,1.5-2.1,2-2.7c1.8,2.2,3.7,2.9,5.2,2.9c0,0,0.1,0,0.1,0c0.6,0,1.1-0.1,1.3-0.2c2.7-0.5,5.2-1.1,7.3-1.9
	c0.3,1.3,0.5,2.5,0.5,3.6c0,2.7-0.8,4.9-1.5,6.6c-0.8,1.6-1.5,2.5-1.5,2.5c-1.3,1.3-2.5,2.4-3.7,3.3c-0.2,0-0.4,0-0.5,0
	C306.1,85.3,304.6,85.5,303.3,85.5z M309.6,38.2c4.5,0,7.6,0.8,9.7,1.5c1,0.4,1.8,0.7,2.2,1c0.5,0.3,0.6,0.4,0.7,0.4
	c0.1,0.1,0.3,0.1,0.4,0.1c0.2,0.9,0.3,1.8,0.3,2.7c0,2.3-0.6,4.6-1.3,6.5l-1.8-2.8l-0.2-0.2c-5.7-5-11-7.7-15.8-8.9
	C305.9,38.3,307.8,38.2,309.6,38.2z M298.4,40.1c5.5,0,12,2.3,19.5,8.9l2.6,3.8c-1,1.9-1.9,3.1-2.1,3.5c-3.6,2.7-6.4,3.5-8.4,3.5
	c-1.9,0-3.2-0.7-4.1-1.3c-0.4-0.3-0.8-0.7-1-0.9c-0.1-0.1-0.1-0.1-0.2-0.2c-0.5-2.5-2.7-3.5-4.3-3.4c-1.4,0-2.5,0.4-2.9,0.6
	c-0.8,0.1-4.4,0.4-8.1,2.2c-4.2,2.1-8.5,6.4-8.5,14.3c0,2.6,0.4,5.5,1.5,8.8c0.1,0.1,4.3,11.8,14.7,11.9c4.6,0,10.1-2.4,16.5-8.9
	c0.1-0.2,3.6-4.4,3.6-10.5c0-1.4-0.2-2.9-0.7-4.5c5-2.2,8.3-5.2,10.4-8.3c2.4,4,3,8.4,3,12.2c0,4.5-1,7.8-1,7.8
	c-2.5,13-10.3,19.5-17.5,23.1c-3.6,1.7-7.1,2.7-9.7,3.2c-2.6,0.5-4.2,0.6-4.2,0.6c-0.4,0-0.8,0.3-0.9,0.6l-4.7,9.8
	c-1.6-1.5-3.4-3-5.3-4.7c0,0-4.4-4.9-9.8-11.8l1.3-3.9c0.1-0.3,0.1-0.7-0.1-1c0,0-1.9-2.7-3.8-7.1c-1.9-4.3-3.8-10.2-3.8-16.3
	c0-4,0.8-8,2.8-11.9c0-0.1,2.3-5.1,6.5-10.1C284.2,45,290.5,40.1,298.4,40.1z M256.7,63c0,0-1.8-2.3-3.7-5.5
	c-1.8-3.2-3.6-7.4-3.6-11c0-1.3,0.2-2.6,0.8-3.7c0.1-0.2,0.2-0.5,0.1-0.8c0,0-0.9-2.9-0.9-6.4c0-2.9,0.6-6,2.5-8.4
	c5.9-5.9,10-7.2,12.3-7.2c1.1,0,1.9,0.3,2.4,0.5c0.2,0.1,0.4,0.2,0.5,0.3c0.1,0.1,0.1,0.1,0.1,0.1c0.2,0.3,0.6,0.4,0.9,0.3
	c0.3,0,0.7-0.2,0.8-0.5c2-3.4,4-4.4,5.9-4.4c2.9-0.1,6.5,2.9,9.1,6c2.3,2.7,3.9,5.4,4.3,6c-0.9,2.7-1.1,5.5-1.1,7.9
	c0,2.3,0.2,4,0.3,4.6c-10.6,5.8-16,18.3-16.1,18.4c-2.2,4.2-3.1,8.6-3.1,12.9c0,11.6,6.2,21.9,7.7,24.2l-0.7,2
	c-1.1-1.5-2.3-3.1-3.5-4.7C264.3,83.3,256.9,71,257,64c0-0.1,0-0.2,0-0.2C257,63.5,256.9,63.2,256.7,63z M262.7,105.4l-2.5-7.4
	l-0.1-0.2l-3.6-5.8l-1.1-3.9l-0.3-0.5l-5.4-4.7c-0.5-0.8-2.7-4.7-4.9-10.2c-2.5-6.1-5-14.2-5-21.7c0-2.2,0.3-4.4,0.8-6.5
	c1.3,9.9,5.1,17.8,5.2,17.9c0.2,0.4,0.6,0.6,1,0.6c0.2,0,0.3,0,0.5-0.1c0.6-0.3,0.8-0.9,0.5-1.5c0,0-1.3-2.8-2.7-7.2
	c-1.4-4.4-2.7-10.2-2.7-16.3c0-6.4,1.5-12.9,6-18.1c0.1-0.1,2.7-4.2,6.3-8.3c3.6-4.1,8.3-8.2,11.6-8.2c0.2,0,0.5-0.1,0.7-0.3
	c0,0,0.4-0.3,1.1-0.7c0.7-0.4,1.8-0.7,2.9-0.7c1.5,0,3.2,0.5,5.2,2.5c0.2,0.2,0.4,0.3,0.6,0.3c0,0,4.6,0.6,9.2,3.3
	c4.6,2.8,9,7.4,9,15.9c0,0.3,0,0.6,0,1l-0.4,13.2c0,0.1,0,0.3,0.1,0.4c-1.8,0.3-3.4,0.8-5,1.5c-0.1-0.8-0.2-2-0.2-3.6
	c0-2.9,0.4-6.7,2-9.5c0.1-0.2,0.8-1.7,0.8-4.2c0-2.9-1-7.2-4.9-11.8c-0.4-0.5-1.1-0.5-1.6-0.1c-0.5,0.4-0.5,1.1-0.1,1.6
	c3.6,4.2,4.4,7.9,4.4,10.3c0,1-0.1,1.9-0.3,2.4c-0.1,0.6-0.2,0.8-0.2,0.8c0,0.1-0.1,0.1-0.1,0.2c-2.2-3.4-7.9-11.5-14.5-11.8
	c-2.6,0-5.1,1.4-7.1,4.5c-0.8-0.4-1.9-0.8-3.5-0.8c-2.7,0-6.4,1.2-11.2,5.4c0.3-0.9,0.6-1.9,1-2.9c1.4-3.2,3.5-6,6.2-6
	c0.6,0,1.1-0.5,1.1-1.1c0-0.6-0.5-1.1-1.1-1.1c-4.3,0.1-6.8,3.9-8.2,7.3c-1.2,2.9-1.8,5.7-2,6.6c-2.2,2.9-2.8,6.5-2.8,9.6
	c0,3.1,0.6,5.6,0.8,6.6c-0.6,1.4-0.8,2.8-0.8,4.3c0.1,7.6,6.2,15.8,7.5,17.5c0.3,16.3,30.4,49.5,30.5,49.7c2.2,1.8,4.2,3.6,6,5.3
	c0,0.4,0.2,0.7,0.6,0.9c0.1,0.1,0.3,0.1,0.4,0.1c12,11.7,13.6,19.3,13.6,22.3c0,0.6-0.1,1-0.1,1.3c0,0.3-0.1,0.3-0.1,0.3l-1.5,4.8
	c-0.1,0.4,0,0.8,0.2,1c4.3,5.1,5.7,9.3,5.7,12.8c0,3.9-1.9,6.9-3.8,9c-0.9,1-1.8,1.7-2.6,2.2c-0.2-4.1-0.8-9-2.3-14.7
	c-0.2-0.6-0.8-0.9-1.3-0.8c-0.6,0.1-0.9,0.8-0.8,1.3c1.7,6.4,2.2,11.7,2.2,16c0,5.4-0.9,9.2-1.8,11.6c-0.5,1.2-0.9,2.1-1.2,2.7
	c-0.3,0.6-0.5,0.8-0.5,0.8l-0.1,0.2c-4.1,7.4-8.7,9.3-12.8,9.4c-3,0-5.8-1.1-7.9-2.2c-1.2-0.7-2.1-1.3-2.7-1.7l1.1-2.1
	c0.2-0.4,0.2-0.8-0.1-1.1c-0.2-0.3-0.6-0.5-1-0.5l-4.3,0.4c-2.3-0.3-7-2.5-8.1-3.1l14.1-25.4c1.2,1.4,6.9,8,13.9,8.2c0,0,0,0,0,0
	c1.4,0,2.8-0.3,4.2-1c-0.2,2.2-0.6,3.4-0.5,3.4c-0.1,0.4,0,0.8,0.3,1.1c1.7,1.5,1.9,3,1.9,3.8c0,0.4-0.1,0.6,0,0.6
	c-2.2,13.7-9.5,14.2-11.5,14.3c-0.4,0-0.5,0-0.5,0c-0.6-0.1-1.2,0.3-1.2,0.9c-0.1,0.6,0.3,1.2,1,1.2c0,0,0.3,0,0.8,0
	c0.1,0,0.2,0,0.3,0c3,0,11.3-2,13.4-16.1c0,0,0.1-0.4,0.1-1c0-1.2-0.4-3.2-2.2-5c0.2-1.1,0.6-3.5,0.6-6.8c0-4-0.6-9.3-2.6-15.5
	c-0.1-0.6-1.3-4.6-8.9-9.7c0.3-0.9,0.7-2.3,0.7-4.1c0-3.1-1.5-7.1-6.8-9.7c-0.1,0-0.1-0.1-0.1-0.1c-0.4-0.2-3.4-2.2-5.6-11.7
	l-0.2-0.4C273.3,116.8,268.3,110,262.7,105.4z M269.8,115.9c0.8,1,1.4,1.8,1.6,2.1c2.6,11,6.4,12.9,6.9,13.1
	c1.4,0.7,2.4,1.5,3.2,2.3l-40.2,67.9c-0.2,0.4-0.2,0.9,0.1,1.3c11.1,12.4,36.4,19.5,41,20.7c-0.3,1-0.5,2.1-0.6,3.2
	c-0.2,1.3-0.3,2.6-0.3,3.9c0,1.7,0.2,3.3,0.5,4.9c-1.2,0.1-2.3,0.1-3.5,0.1c-11.8,0-22.9-4.2-31.1-8.4c-8.2-4.2-13.3-8.4-13.4-8.4
	c-0.2-0.2-0.5-0.3-0.8-0.2c-0.3,0-0.6,0.2-0.7,0.4l-2.7,3.4c-5.1-4.5-12-10.2-20-15.5l2.5-4.3c0.3-0.5,0.1-1.2-0.4-1.5
	c-7.9-4.6-23.2-17.8-25.9-20.1c0.5-4.6,2.4-7.6,4.3-9.6c1-1,2-1.8,2.7-2.2c0.1-0.1,0.2-0.1,0.2-0.2c2.8,4.4,10.1,9.5,17,13.9
	c7.5,4.7,14.5,8.4,14.5,8.4c0.5,0.3,1.2,0.1,1.5-0.4L269.8,115.9z M236.4,168c0.1,0.1,0.2,0.1,0.3,0.1l-8.4,14.5
	c-0.1-0.1-0.3-0.2-0.5-0.3c-1.8-0.6-7.3-4.5-12-8.1c-3.8-2.9-7.2-5.7-8.4-6.7c0.3-1.3,1-4.1,1-7.4c0.1-6.5-2.6-15.3-14.5-17.6
	c-0.1,0-0.2,0-0.3,0c-0.1,0-5.8,0-11.7,3c-4.6,2.3-9.4,6.5-11.7,13.8c-0.5-2.5-1-5-1.3-7.7l-0.1-0.3c0,0-1.3-3.8-1.3-8.7
	c0-0.9,0.1-1.9,0.2-2.9c2.6-1.2,10.3-4.5,16.1-4.5c1.9,0,3.6,0.4,4.7,1.1c0.4,0.3,1,0.2,1.3-0.1c0,0,1.4-1.3,3.6-2.5
	c2.2-1.3,5.2-2.5,8.2-2.5c3.2,0,6.4,1.3,9.3,5.6l0.5,0.4c0,0,5.3,2.2,10.8,4.9c3.7,1.8,7.5,4,9.6,5.7l-5.8-1c-0.4-0.1-0.7,0.1-1,0.3
	c-0.3,0.3-0.4,0.6-0.3,1C225,148.3,227.2,161,236.4,168z M182.9,147.4c2.7-1.4,5.4-2.1,7.4-2.4c1.7-0.3,2.9-0.3,3.2-0.3
	c10.6,2.2,12.5,9.4,12.6,15.4c0,2.9-0.5,5.3-0.8,6.6l-4.9-0.6c-0.6-0.1-1.2,0.4-1.2,1c-0.1,0.6,0.4,1.2,1,1.2h0l5.6,0.7
	c2.1,1.7,16.8,13.8,21.4,15.5c0,0,0.1,0,0.1,0l-2.4,4.1c-2.1-1.2-7.6-4.2-13.4-7.8c-7.4-4.6-15.3-10.5-16.8-14
	c-0.3-0.6-0.9-0.8-1.5-0.5c-0.1,0.1-8.7,4-9.5,14.9c0,0.3,0.1,0.7,0.4,0.9c0,0,1.2,1,3.1,2.7c0,0-0.2,0.1-0.5,0.2
	c-0.4,0.1-1,0.3-1.7,0.3c-0.9,0-1.9-0.2-3.1-0.9c-4.1-5.4-7.9-12.1-10.4-20.3C172.8,154.6,177.9,150,182.9,147.4z M184.9,187.3
	C184.9,187.3,185,187.3,184.9,187.3c2,0,3.3-0.8,3.4-0.8c0.2-0.1,0.3-0.3,0.4-0.5c5.6,4.7,14.9,12.4,21.1,16.2l-1.9,3.3
	c-2.1-1.3-4.2-2.7-6.4-3.9c-0.1,0-1.8-0.9-4.6-2.8c-3.3-2.3-8-6.1-12.7-11.5C184.5,187.3,184.7,187.3,184.9,187.3z M171,254.6
	c-3.2-4.1-6.4-9.8-6.4-16.1c0-0.4-0.2-0.8-0.6-1c-0.3-0.2-0.8-0.2-1.1,0l-2.9,1.7l-6-7.4l-0.6-0.4c0,0-0.6-0.2-1.7-0.8
	c-3.2-1.8-10-6.9-10-21.5c0-2.6,0.2-5.6,0.7-8.9c0.1-0.4-0.1-0.8-0.4-1.1c-0.3-0.2-0.8-0.3-1.1-0.1l-5.7,2.5
	c-0.2-0.4-0.4-0.8-0.6-1.4c-0.5-1.5-1.1-3.8-1.1-6.7c0-4.2,1.1-9.7,5-16.4c0.2-0.3,0.2-0.6,0.1-0.9c-0.1-0.3-0.3-0.5-0.6-0.7
	c0,0,0,0-0.2-0.1c-0.4-0.4-1.7-1.5-1.7-5.2c0-2.1,0.4-4.9,1.7-8.8l0-0.2c0,0,0.9-9.8,4.5-20c3.4-9.9,9.3-19.7,18.7-21.5
	c-3.5,7.3-4.7,13.2-4.7,13.2c-0.1,0.6,0.3,1.2,0.9,1.3c0.6,0.1,1.2-0.3,1.3-0.9h0c0,0,1.6-8.3,7-17.4c5.4-9.1,14.6-19,29.6-22.2
	l0.3-0.1c0,0,1.4-0.8,3.5-1.7c2-0.9,4.6-1.7,6.8-1.7c2,0,3.5,0.6,4.4,2.2c0.2,0.4,0.7,0.6,1.2,0.5c0,0,5.1-1.2,11.3-1.2
	c5.6,0,12,1,16.2,4.4l1.4,4.1l0.3,0.5c0,0,3.7,3.1,7.4,6.8c3.1,3,6.2,6.6,7.3,8.9c-0.9,0.1-2.1,0.2-3.3,0.7
	c-1.5,0.6-2.9,2.2-2.9,4.5c0,2.9,1.8,6.8,6.8,12.8c0,0,0,0,0.1,0l-18.4,31.5c0,0,0,0-0.1-0.1c-4.2-3.1-6.9-7.7-8.5-11.6
	c-0.9-2.2-1.5-4.1-1.8-5.3l7.2,1.2c0.4,0.1,0.8-0.1,1-0.4c0.3-0.3,0.3-0.7,0.2-1.1c-1.3-3.1-6.9-6-12.5-8.9
	c-4.8-2.4-9.4-4.4-10.6-4.9c-3.2-4.6-7.2-6.3-11-6.3c-5.9,0-11,3.7-12.7,5.1c-1.5-0.8-3.3-1.1-5.2-1.1c-5.6,0-12.2,2.6-15.7,4.1
	c0.9-3.7,2.9-7.4,6.9-10.3c0.3-0.2,0.5-0.6,0.5-1c0,0-0.1-0.8-0.1-2.1c0-4,1-11.4,6.5-12.2c0.6-0.1,1-0.6,0.9-1.2v0
	c0.1-0.8,0.1-8.6,17.6-12.8c0.6-0.1,1-0.7,0.8-1.3c-0.1-0.6-0.7-1-1.3-0.8c-16.2,3.7-18.9,11.4-19.2,14.2
	c-6.8,1.9-7.5,10.3-7.5,14.1c0,0.7,0,1.3,0,1.7c-4.8,3.6-6.9,8.4-7.6,12.9c-0.4,0.3-0.5,0.9-0.3,1.3c0,0.1,0.1,0.1,0.1,0.2
	c-0.1,0.9-0.2,1.9-0.2,2.8c0,4.8,1.2,8.6,1.4,9.3c0.5,4.4,1.3,8.4,2.4,12.2c-0.1,0.7-0.2,1.4-0.2,2.2c0,0.6,0.4,1.1,1,1.2
	c0.1,0,0.2,0,0.2,0c2.2,6.3,5.2,11.6,8.4,16.2c-0.2,0.4-0.1,1,0.3,1.3c0.5,0.4,0.9,0.7,1.4,1c9.4,12.2,20.1,17.5,20.2,17.6
	c10.2,5.8,19.3,12.9,25.9,18.6c5.8,5,9.6,8.8,10.4,9.7l1.4,4.2c-0.1,0.5,0,1,0.4,1.2l1.8,5.3c0.2,0.5,0.8,0.9,1.3,0.7l5.3-1.3
	c11,9.7,17.8,19.7,21.9,27.4c3.4,6.5,4.9,11.2,5.2,12.5l-1.3,2.6c-0.2,0.3-0.2,0.6,0,0.9c0.1,0.3,0.4,0.5,0.7,0.6
	c2,0.5,3.8,2.8,4.9,5.1c0.6,1.3,1.1,2.5,1.4,3.3c-7,2.5-12.8,3-16.7,3c-3.4,0-5.2-0.4-5.2-0.4c-0.4-0.1-0.8,0-1.1,0.4
	c-0.3,0.3-0.3,0.7-0.2,1.1c0,0.1,5.1,13.8,20.4,19.6c-1.4,4.4-5.9,7.3-10.3,9c-4.5,1.8-8.6,2.3-8.6,2.3c-0.3,0-0.5,0.2-0.7,0.4
	l-5.2,6.6c-0.2,0.3-0.3,0.6-0.2,1c-5.1,0.8-10.7,1.2-16.8,1.3c-0.7,0-1.3,0-2,0c0.2-0.2,0.3-0.4,0.3-0.6c0,0,0.2-1.8,0.2-4.1
	c-0.1-2.9-0.2-7-3-8.5c0.3-1.4,0.8-4.2,0.8-7.3c0-2.9-0.4-6.1-2-8.7c-1.6-2.6-4.5-4.5-8.8-4.5c-0.3,0-0.7,0-1.1,0c0-0.1,0-0.1,0-0.2
	c0.1-3.3-1.1-11.1-9.8-17.5c-0.1-0.2-0.2-0.3-0.4-0.4c-0.1-0.1-0.3-0.1-0.4-0.1c-3.8-2.6-8.8-4.9-15.6-6.5
	c-1.2-2.5-6.9-13.7-16.4-19.1C177.3,261.1,174.1,258.7,171,254.6z M279.2,318.8c3.1,1,6.7,1.6,10.7,1.8
	c-7.6,6.9-18.7,13.5-35.1,16.4l4.3-5.5C261.8,331.1,275.8,328.6,279.2,318.8z M217.9,307c0.2,0.3,0.6,0.4,0.9,0.3
	c0.8-0.1,1.5-0.2,2.1-0.2c5.1,0,7.3,2.8,8.1,6.3c-4.3,9.5-11.1,13.8-17.9,15.5c-0.2-0.9-0.5-2.7-0.5-4.6c0-1.9,0.3-4,1.2-5.4
	c0.9-1.4,2.1-2.3,4.6-2.4c1,0,2.1,0.2,3.4,0.5c0.4,0.1,0.8,0,1.1-0.3c0.3-0.3,0.4-0.7,0.3-1.1c0,0-2.1-8.9-10.2-9
	c-1.4,0-2.9,0.3-4.5,0.9l2.4-4.9c0.2-0.3,0.2-0.7,0-1c-0.2-0.3-0.5-0.5-0.9-0.6c0,0-0.3,0-0.7,0c-0.9,0-2.7,0.1-4.4,0.7
	c2-4,4.1-8.1,6.5-12.4c7.5,5.8,8.2,12.4,8.2,15.2c0,0.8-0.1,1.3-0.1,1.3C217.6,306.5,217.7,306.8,217.9,307z M206.2,303.5l-3.1,6.1
	c-0.2,0.4-0.1,1,0.2,1.3c0.4,0.3,0.9,0.4,1.3,0.2c2.6-1.5,4.7-2,6.4-2c4.1-0.1,6.4,3.4,7.4,5.6c-0.7-0.1-1.4-0.2-2-0.2
	c-3.1,0-5.4,1.4-6.5,3.4c-1.2,2-1.5,4.4-1.5,6.5c0,2.2,0.3,4,0.5,5c-2.2,0.4-4.4,0.6-6.4,0.6c-3.4,0-6.3-0.4-8.5-0.8
	c-1.4-0.3-2.3-0.5-2.9-0.7c1.9-4.8,5.2-13.2,10-23C202.5,304.2,204.7,303.7,206.2,303.5z M202.6,332.3c0.1,0,0.1,0,0.2,0
	c8.7,0,20.1-2.9,26.8-14.9c0,0.3,0,0.5,0,0.7c0,4.1-1,7.7-1,7.7c-0.1,0.3,0,0.6,0.1,0.9c0.2,0.3,0.4,0.4,0.7,0.5
	c0.7,0.1,1.3,0.7,1.7,2.1c0.4,1.3,0.6,3.1,0.5,4.7c0,2.1-0.2,3.8-0.2,3.8c0,0.3,0.1,0.6,0.3,0.9c-12-0.3-25.8-2.3-41.9-6.6
	c0.1-0.4,0.3-0.8,0.5-1.4C191.8,331.1,196.6,332.3,202.6,332.3z M141.5,264.1c4.6,4.9,9.1,11.7,9.1,19.6c0,2.2-0.3,4.4-1.1,6.8
	c-0.1,0.3-0.1,0.7,0.1,0.9c0.2,0.3,0.5,0.5,0.8,0.5c0,0,0.2,0,0.4,0c0,0,0,0,0,0c0.9,0,2.9-0.2,4.7-1.9c1.9-1.7,3.4-4.8,3.3-10
	c0-1.4-0.1-2.9-0.3-4.5c0.3,0.3,0.7,0.6,1,1c1.5,1.6,3,4,3,7.3c0,1-0.1,2.1-0.5,3.3c-3.8,7.2-8,15.1-11.8,22.5c0,0,0,0,0,0
	c-16.3-3.3-26.1-13.4-32-24.9c0-0.1,0.3-0.4,0.6-0.8c0.4-0.4,1-0.7,1.5-0.7c0.4,0,0.9,0.1,1.7,0.7c0.4,0.3,0.9,0.3,1.3,0.1
	c0.1-0.1,1.9-1.1,1.9-3.5c0-0.7-0.2-1.5-0.6-2.3c0.9-1.2,2.8-3.8,2.8-7c0-3.8-2.9-7.7-11.3-9.9c0.3-0.5,0.7-1,1.1-1.6
	c1.1-1.4,2.6-2.5,4.2-2.6c0.1,0.7,0.2,1.3,0.2,2c0,0.4,0.2,0.7,0.6,0.9c0.3,0.2,0.7,0.2,1.1,0c0,0,2.9-1.6,7.3-3.2
	c0.5-0.2,1-0.4,1.5-0.5c0,0,0,0,0,0C132.4,256.4,136.9,259.2,141.5,264.1z M149.4,311.6c-4.5,8.6-8.4,16.3-10.7,21.1
	c-1.1-0.6-3-1.8-5.4-3.6c-11.5-8.6-34.7-31.5-34.7-77c0-5.4,0.3-11.1,1-17.1c1.7,0.8,4.8,2.4,8.3,4.7c-0.1,0.8-0.1,2.6-0.1,5.1
	C107.7,260,111.1,303.2,149.4,311.6z M113.7,262.6c0.1,0.3,0.4,0.5,0.8,0.6c9.2,2.1,11,5.4,11,8c0,1.5-0.7,3.1-1.4,4.3
	c-0.7,1.2-1.4,1.9-1.4,1.9c-0.4,0.4-0.4,0.9-0.1,1.4c0.5,0.8,0.7,1.4,0.7,1.8c0,0.5-0.2,0.8-0.4,1.1c-0.8-0.5-1.5-0.7-2.3-0.7
	c-1.5,0.1-2.6,0.8-3.2,1.5c-6.5-14-7.4-29.7-7.4-37.8c0-1.5,0-2.7,0.1-3.6c4.7,3.5,9.3,8.2,11.1,13.8c-5,0.7-7.3,6.6-7.4,6.6
	C113.6,262,113.6,262.3,113.7,262.6z M50.6,417.1c-8.7,0.1-14.5,5.4-17.4,9.1c0.9-6.6,4.5-10.3,8.9-12.6c5.1-2.6,11.2-3.1,15-3.1
	c2.1,0,3.4,0.2,3.4,0.2c0.4,0,0.8-0.1,1.1-0.5c0.2-0.4,0.2-0.8,0-1.2l-1.9-3c2.4-0.3,4.5-0.5,6.4-0.5c2.1,0,3.8,0.2,5.4,0.5
	c0,0,0,0,0,0c0.2,0.2,0.5,0.3,0.7,0.3c0.1,0,0.2,0,0.3-0.1c2.5,0.6,4.3,1.4,5.5,2.3c1,0.7,1.7,1.4,2.1,1.9c0.2,0.2,0.3,0.4,0.3,0.5
	c-3.5,1-7.2,2.8-11.1,5.5c-0.3,0.2-0.5,0.7-0.5,1.1c0.1,0.4,0.3,0.8,0.7,0.9l2.8,0.9c-1.3,1-2.9,2.5-4.5,4.7
	C61.5,419,55.6,417.1,50.6,417.1z M99.7,424.6l-0.3,0.3c0,0.1-2.5,3.7-3.7,8.5c-5.2-5.9-9.9-8.4-14.1-8.4
	c-8.2,0.2-13.1,8.6-15.5,13.8c0-0.4,0-0.8,0-1.3c0-4.8,1.3-8.5,3-11.2c0,0,0.1,0,0.1-0.1c0.1-0.1,0.1-0.2,0.1-0.2
	c0.5-0.8,1-1.5,1.5-2.1c1.2-1.4,2.4-2.4,3.2-3.1c0.9-0.7,1.4-0.9,1.4-0.9c0.4-0.2,0.6-0.6,0.6-1.1c0-0.4-0.3-0.8-0.7-1l-2.8-0.9
	c6.1-3.8,11.5-5.2,16.1-5.2c6.1,0,11.1,2.4,14.5,4.7c2.1,1.5,3.6,3,4.4,3.9C105,421.3,102.4,422.7,99.7,424.6z M187.9,412.3
	c-0.2-0.1-0.4-0.1-0.6,0c0,0-6.6,1.9-15.8,1.9c-3.9,0-8.4-0.3-12.9-1.3c-0.6-0.1-1.2,0.3-1.3,0.8c-0.1,0.6,0.3,1.2,0.9,1.3
	c4.7,1,9.3,1.4,13.4,1.4c1.9,0,3.7-0.1,5.3-0.2c-3.6,5.2-10.5,6.5-16.5,6.5c-5.2,0-9.5-1-9.5-1l-0.5,0c-3,0.7-4.6,0.9-5.4,0.9
	c-0.1,0-0.1,0-0.2,0c0,0-0.1-0.1-0.1-0.1c-2.6-2.3-4.7-3.2-6.6-3.2c-3.7,0.2-5,3.5-5.5,5.1c-3.9-3.1-9.2-5.9-15.8-5.9
	c-2.2,0-4.6,0.3-7,1.1c-1.4-1.6-9-10-21.2-10c-1.9,0-3.9,0.2-6,0.7c0,0,0,0,0-0.1l0,0c-0.1-0.2-1.9-4-8.4-5.9
	c3-4.4,3.9-9.6,3.9-14.2c0-7.1-2.1-12.9-2.1-13l-0.1-0.3c-6.8-9.4-13.5-12.7-19.3-12.7c-7.5,0.1-13,5.2-15.8,8.4
	c0.8-14.9,12-16.1,16.8-16.2c1.2,0,1.9,0.1,1.9,0.1c0.4,0,0.8-0.1,1-0.4c0.2-0.3,0.3-0.7,0.2-1c-3.9-12.3-10.5-16.7-17.2-16.7
	c-8,0.1-15.7,5.9-19.4,9.1c1.2-5.9,4.4-9.5,7.6-11.9c1.8-1.3,3.7-2.2,5-2.8c1.3-0.5,2.2-0.7,2.2-0.7c0.5-0.1,0.9-0.6,0.9-1.1
	c0-1.4-1-2.2-2-2.8c-1.2-0.7-2.7-1.3-4.1-1.7c1.2-0.1,2.5-0.2,3.8-0.2c3,0,5.5,0.3,5.5,0.3c3.2,0.5,5.9,0.8,8.2,0.8
	c4,0,6.6-0.7,8.4-2c1.8-1.3,2.4-3.2,2.4-4.9c0-3.7-2.4-7-2.5-7.1c-0.3-0.5-1-0.6-1.5-0.3c-0.5,0.3-0.6,1-0.3,1.5v0
	c0,0,0.5,0.8,1.1,1.9c0.5,1.1,1,2.6,1,4c-0.1,1.8-0.7,3.5-4.2,4.3c0.3-1,0.4-2,0.4-2.9c-0.1-7-7-10.6-13.3-12.6
	c-6.4-2-12.7-2.5-12.7-2.5c-14.8,0.3-22.4,4.9-26.1,8.7c4.7-15.2,20.2-17.2,28.4-17.2c2.8,0,4.6,0.3,4.6,0.3c0.3,0,0.7-0.1,0.9-0.3
	c0.2-0.2,0.4-0.6,0.3-1c-0.5-2.5-2.6-4.6-4.1-5.9c2.3-0.5,4.3-0.7,6.1-0.7c4.4,0,7.4,1.2,9.4,2.4c1,0.6,1.7,1.2,2.1,1.6
	c0.5,0.4,0.6,0.7,0.6,0.7c0.4,0.5,1,0.6,1.5,0.2c1.2-0.9,1.9-2.1,1.8-3.3c-0.1-1.4-0.7-2.6-1.4-3.6c3.9,0.4,6.8,1.7,8.8,3
	c1.2,0.8,2.1,1.6,2.7,2.1c0.6,0.6,0.8,0.9,0.8,0.9c0.3,0.3,0.7,0.5,1.1,0.4c0.4-0.1,0.7-0.4,0.9-0.8c0.6-1.9,0.9-3.5,0.9-5.1
	c0-5.2-3.2-8.1-6.3-9.6c-1.5-0.7-3-1.1-4.1-1.4c0.7-0.5,1.4-0.6,2.3-0.6c0.9,0,1.7,0.2,2.4,0.4c0.5,0.2,0.9,0.3,1.1,0.4
	c5,3.2,8.6,4.2,11.1,4.2c3.1,0,4.5-1.6,4.6-1.8c0.4-0.5,0.3-1.2-0.2-1.5c-0.5-0.4-1.2-0.3-1.5,0.2l0,0c0,0,0,0-0.1,0.1
	c-0.3,0.2-1,0.8-2.8,0.8c0,0-0.1,0-0.1,0c0-0.1,0-0.2,0-0.3c-1.3-35.6-13.4-43.1-22.6-43.1c-2.9,0-5.3,0.7-7,1.3
	c3.2-9.4,7.4-12.2,11.6-12.2c5.1-0.1,11,4.4,15.5,9c4.5,4.6,7.6,9.2,7.7,9.2c0,0,0.1,0.1,0.1,0.1c-0.2,3.1-0.3,6.2-0.3,9.4
	c0,7.3,0.5,14.9,1.7,22.9c0,0.1,2.7,15.5,13.8,35.8c-3-1.7-6-2.4-8.7-2.3c-6.6,0-11.2,3.7-11.3,3.8c-0.4,0.3-0.5,0.8-0.3,1.3
	c0.2,0.5,0.6,0.7,1.1,0.7c0.3,0,0.5,0,0.8,0c8.2,0,10.1,5.4,10.6,8.5c-3.7-2-7-2.8-9.9-2.8C67.5,322,63,332.3,62.9,332.3
	c-0.2,0.4-0.1,0.8,0.1,1.1c0.2,0.3,0.6,0.5,1,0.5c1.5-0.1,2.9-0.2,4.2-0.2c9,0,15.6,2.1,20.3,5.3c-3.2,1.2-8.8,4.3-8.9,11
	c0,1.7,0.4,3.5,1.2,5.6c-1,0.9-2.6,2.7-2.6,5.7c0,3.4,2,7.7,8.5,13.1c-1.3,0.6-3.9,2.4-3.9,6.5c0,2,0.6,4.5,2.3,7.6
	c-2.3,1.2-7.2,4.5-7.2,10.9c0,1.1,0.2,2.4,0.5,3.7c0.1,0.5,0.6,0.8,1.1,0.8c0.1,0,0.2,0,0.3,0c0.6-0.2,0.9-0.8,0.8-1.4
	c-0.3-1.1-0.4-2.1-0.4-3.1c0-3.3,1.7-5.6,3.5-7.2c1.8-1.5,3.5-2.2,3.5-2.2c0.3-0.1,0.5-0.4,0.6-0.7c0.1-0.3,0.1-0.6-0.1-0.9
	c-1.9-3.4-2.5-5.8-2.5-7.5c0-2,0.8-3.1,1.5-3.8c0.4-0.3,0.8-0.6,1-0.7c0.3-0.1,0.4-0.2,0.4-0.2c0.2-0.1,0.4-0.2,0.6-0.4
	c2.3,1.8,5.1,3.7,8.5,5.8c0.2,0.1,0.4,0.2,0.6,0.2c0.4,0,0.7-0.2,0.9-0.5c0.3-0.5,0.2-1.2-0.4-1.5c-14.7-8.9-17.8-15.2-17.8-18.5
	c0-1.5,0.6-2.6,1.2-3.4c0.3-0.4,0.6-0.7,0.8-0.8c0.2-0.2,0.3-0.2,0.3-0.2c0.5-0.3,0.7-0.9,0.4-1.4c-1-2.1-1.4-3.9-1.4-5.4
	c-0.2-6.3,6.9-8.8,8.9-9.4c1.3,1.1,2.4,2.3,3.4,3.5c-0.1,0.1-0.2,0.2-0.3,0.4v0c0,0.1-1.5,3.6-1.5,8.1c-0.1,7.2,4,17,21.9,19.2
	c0.2,1.7,0.7,5.4,2.6,9.2c2.5,5.1,7.8,10.3,17.4,10.3c1.1,3.4,6.8,14.6,31.9,14.6c0.1,0,0.2,0,0.3,0c5.7,0,12.5-0.6,20.4-1.9
	c0.9,1.4,1.6,3.1,1.6,5.1C188.5,410.1,188.3,411.2,187.9,412.3z M98,345.8c-1.5-2.5-3.6-4.9-6.1-7.1c-0.1-0.2-0.3-0.3-0.5-0.4
	c-5.2-4.1-12.7-6.9-23.2-6.9c-0.8,0-1.6,0-2.4,0c0.5-0.8,1.3-1.9,2.3-2.9c2.2-2.3,5.5-4.5,10-4.5c2.9,0,6.4,0.9,10.6,3.5
	c0.3,0.2,0.8,0.2,1.1,0c0.3-0.2,0.6-0.5,0.6-0.9c0,0,0-0.1,0-0.2c0-0.9-0.1-3.9-1.8-6.8c-1.4-2.4-4-4.7-8.2-5.5
	c1.8-0.8,4.1-1.5,6.9-1.5c3.1,0,6.6,0.9,10.2,3.8c0.2,0.2,0.4,0.2,0.7,0.2c1.5,2.5,3,5.1,4.8,7.8c0,0,5.8,10.4,11.6,23.1
	c5.9,12.7,11.7,27.8,11.6,36.6c0,1.1-0.1,2.1-0.3,3c-3.4-1.7-5.6-4.4-7.1-7.2c-1.2-2.3-1.8-4.6-2.1-6.4c-0.3-1.7-0.3-2.8-0.4-2.8
	c0-0.6-0.4-1-1-1.1c-5.3-0.6-9.3-1.8-12.3-3.4c0-0.2,0-0.7,0-1.4C103.2,361.7,102.7,353.4,98,345.8z M101,365
	C101,365.1,101,365.1,101,365c-5.2-3.5-6.3-8.3-6.4-12.4c0-2.9,0.7-5.3,1.1-6.5C100.4,353.4,100.9,361.7,101,365z M154.5,402.7
	c3.7-1.2,9.9-2.9,15.5-2.9c2.7,0,5.2,0.4,7.2,1.3c0.3,0.1,0.6,0.1,0.9,0c0.3-0.1,0.5-0.4,0.6-0.7c0,0,0.3-0.9,0.9-2.3
	c0.9,0.4,2.5,1.2,4.1,2.5c0.5,0.4,1,0.9,1.5,1.4c-7.3,1.2-13.5,1.7-18.8,1.7C161.8,403.7,157.8,403.3,154.5,402.7z M192.2,410.7
	c-0.4,0.2-0.7,0.6-0.7,1c-0.5,0.7-1.1,1.4-1.6,2c0,0-0.1,0.1-0.1,0.1c0.6-1.7,0.9-3.2,0.9-4.7c-0.1-7.8-7.5-11.7-10.1-12.9
	c1-2,2.5-4.4,4.5-7c5.1,4.2,7.6,7.9,8.6,11.2c0,0.2,0,0.3,0,0.5c0,0.1,0.1,0.2,0.2,0.3c0.2,0.9,0.3,1.8,0.3,2.7
	C194.2,406.5,193.4,408.8,192.2,410.7z M186.5,387.5c0.1-0.1,0.2-0.2,0.3-0.4c0.2,0.1,0.3,0.2,0.6,0.3c0,0,2.5,0.3,5,1.2
	c2.6,0.9,4.6,2.4,4.5,4.1c0,0.9-0.6,2.4-2.3,4.2C193.2,394,190.6,390.8,186.5,387.5z M206.6,400c0,0.1-1.3,2-3.8,4.4
	c-1.9,1.8-4.4,3.7-7.5,5.2c0.7-1.7,1.2-3.5,1.2-5.6c0-0.8-0.1-1.7-0.3-2.6c2.4-0.8,7.9-3.1,9.1-8.2c0.1-0.6-0.3-1.2-0.9-1.3
	c-0.6-0.1-1.2,0.3-1.3,0.9c-0.4,2.2-2.5,4-4.6,5.2c-1.1,0.6-2.1,1-2.9,1.3c0,0,0,0,0,0c2.4-2.4,3.6-4.4,3.6-6.4
	c-0.1-3.5-3.3-5.2-6-6.2c-1.8-0.7-3.6-1-4.6-1.2c1.6-1.6,3.5-3.1,5.7-4.5c1,0.2,4.3,1,7.7,2.7c4,2,7.7,5,7.6,9.1
	C209.7,394.6,208.8,397.1,206.6,400z M220.9,383.3c-0.4-0.1-0.8-0.2-1.1-0.2c-2.6,0.1-4.7,2.3-6.5,4.2c-0.8,0.9-1.4,1.8-1.9,2.5
	c-1.3-3.9-4.9-6.6-8.4-8.3c-2.2-1.1-4.4-1.8-6-2.3c5.1-2.7,11.5-4.6,19.4-4.6c3.3,0,6.8,0.3,10.7,1
	C223.9,379.1,221.9,381.9,220.9,383.3z M298.3,363.7c-4.6-4.1-8.3-6.3-10.7-7.3c8-4.2,33.1-22,47.9-81.9c0.1-0.6-0.2-1.2-0.8-1.3
	c-0.6-0.1-1.2,0.2-1.3,0.8c-8.8,35.5-21.2,55.9-31.2,67.4c-5,5.8-9.5,9.3-12.7,11.4c-2.5,1.6-4.1,2.3-4.7,2.6
	c-4.8-1.5-9.4-2.2-13.9-2.2c-18.7,0.1-33.5,11.8-42.1,20.8c-0.1-0.1-0.2-0.2-0.4-0.3c-0.1,0-14.2-4.9-31.5-4.9
	c-16.2,0-35.3,4.3-47.6,21.3c-0.4,0.5-0.2,1.2,0.2,1.5c0.5,0.4,1.2,0.2,1.5-0.2c11.7-16.2,29.9-20.4,45.8-20.4
	c6.3,0,12.3,0.7,17.2,1.5c-25.5,1.2-35,21.2-36.9,26.2c-2.2-0.8-4.6-1.1-7-1.1c-8.4,0-17.6,3.4-19.5,4.1c-4.6-1.4-7.8-3.2-9.9-5.1
	c-2-1.7-3.1-3.4-3.7-4.7c-0.6-1.3-0.7-2-0.7-2c-0.1-0.5-0.6-0.9-1.1-0.9c-0.3,0-0.5,0-0.8,0c-2.5,0-4.6-0.4-6.4-1
	c0.3-1.2,0.5-2.4,0.5-3.8c-0.1-19-23.6-60.8-23.6-60.9c-8.4-12.9-13.6-24.6-16.6-33c-3-8.5-3.9-13.7-3.9-13.7
	c-1.1-7.9-1.7-15.4-1.7-22.6c0-33.1,11-58.1,22-74.9c5.5-8.4,11-14.7,15.1-18.9c1.8-1.8,3.3-3.2,4.4-4.2c-1.7,8.4-2.4,16.3-2.4,23.7
	c0,40,21.5,63.5,31.9,72.4c-2.2-0.5-4.3-0.6-6.5-0.6c-10.2,0-19.7,4.2-23.3,5.9c-2.4-16.2-24.8-25-24.8-25.1c-0.3-0.1-0.7-0.1-1,0.1
	c-0.3,0.2-0.5,0.5-0.5,0.8c-0.8,6.7-1.2,12.9-1.2,18.8c0,61.9,42.2,83.1,42.3,83.1c0.3,0.1,0.6,0.2,0.9,0.1c0.3-0.1,0.5-0.3,0.6-0.6
	c6.8-14.2,32.9-63.4,37-71.1c4.5,2.9,8.1,7.2,10.6,10.8c2.7,4,4.1,7.2,4.1,7.2c0.1,0.3,0.4,0.5,0.8,0.6c6.5,1.5,11.4,3.6,14.9,6
	c-3.1,5.6-6,11.1-8.4,16.2c-0.4,0.6-0.8,1.2-1.1,1.9c-0.1,0.2-0.1,0.3,0,0.5c-6.1,13.1-9.7,23-10.5,25l-16.5,7.9
	c-0.6,0.3-0.8,0.9-0.5,1.5c0.2,0.4,0.6,0.6,1,0.6c0.2,0,0.3,0,0.5-0.1l16.6-7.9c18.2,4.9,33.7,7,46.9,7c0,0,0,0,0.1,0
	c29.3,0,47-10.1,57.5-20.3c0,0,0,0,0,0c0.6,0,1.1-0.5,1.1-1.1c0,0,0,0,0,0c9.6-9.9,12.4-19.4,12.5-19.5c0.1-0.5,0-1-0.5-1.2
	c-0.4-0.3-0.9-0.2-1.3,0.1c-4.1,3.4-12.1,5.5-19,6.6c-6.9,1.1-12.7,1.3-12.7,1.3c-0.6,0-1.1,0.5-1.1,1.1c0,0.6,0.5,1.1,1.1,1.1
	c0.1-0.1,19.4-0.5,30.1-6.4c-0.4,0.8-0.9,1.8-1.4,2.9c-1.9,3.6-5,8.3-9.7,13c-0.1,0-0.3,0-0.4,0c-12.8,0-20.9-5.2-26-10.4
	c-2.5-2.6-4.3-5.2-5.4-7.1c-0.3-0.5-0.6-1-0.8-1.4c0.9,0.1,2.2,0.2,3.6,0.2c4.2,0,10.5-0.6,18.1-3.4c0,0,0,0,0,0c0.1,0,0.2,0,0.3,0
	c0.2,0,0.3-0.1,0.5-0.3c16.4-6.2,38.3-22.4,57.2-63.1c0.5,1.9,1.1,4.7,1.7,8.2c1.3,7,2.5,17,2.5,28.4
	C343.4,298.6,335.3,337.2,298.3,363.7z M330.1,370.4c-2.3-9.8-11.6-11.9-17.9-11.8c-1.5,0-2.9,0.1-4.1,0.2c2.8-2.5,5.5-5,7.9-7.6
	c0.1,0.1,0.3,0.2,0.4,0.3c11.8,4.4,14.1,10.4,14.1,15.2C330.5,368,330.3,369.3,330.1,370.4z M195.9,443.4c-0.5-0.3-1.2-0.2-1.5,0.4
	c-0.3,0.5-0.2,1.2,0.4,1.5c12.9,8,15,18.6,15.1,25.1c0,0.4,0,0.8,0,1.2c-3.6-7.3-11.3-9.4-14-9.9c-0.5-4.1-4.2-6.5-7.5-7.9
	c-3.2-1.4-6.4-2-7-2.1c-0.8-2.3-1.8-4.9-3.2-7.7c-0.3-0.6-0.9-0.8-1.5-0.5c-0.5,0.3-0.8,0.9-0.5,1.5c4,8.2,5.3,14.1,5.3,18.3
	c0,4.5-1.5,6.9-2.9,8.3c-0.3,0.3-0.7,0.6-1,0.8c0.2-1.4,0.3-2.8,0.3-4c0-7.5-3.8-11.9-7.5-14.1c-3.7-2.2-7.4-2.6-7.4-2.6
	c-0.6-0.1-1.1,0.3-1.2,0.9l-0.2,1.1c-2.5-3.5-7.7-5.1-7.7-5.2c-0.2-0.1-0.5-0.1-0.7,0c-0.2-1.9-0.6-4-1.4-6.5
	c-0.2-0.6-0.8-0.9-1.4-0.7c-0.6,0.2-0.9,0.8-0.7,1.4c1,3.1,1.4,5.6,1.4,7.7c0,4.5-1.8,6.8-3.6,8.1c-0.3,0.3-0.7,0.5-1,0.6
	c0.3-1,0.5-1.9,0.5-2.8c0-4.5-3-7.9-3.1-8c-3.2-3-6.1-4.1-8.6-4.1c-7.2,0.2-9.8,8.9-9.9,8.9c-0.2,0.6,0.1,1.2,0.7,1.4
	c0.6,0.2,1.2-0.1,1.4-0.7c0,0,0.6-1.9,2-3.8c1.4-1.9,3.3-3.6,5.8-3.6c1.8,0,4.1,0.8,7,3.4c0,0,0.6,0.7,1.2,1.9
	c0.7,1.2,1.3,2.9,1.3,4.6c0,1.4-0.4,2.8-1.5,4.1c-0.3,0.4-0.3,0.8-0.1,1.2c0.2,0.3,0.6,0.6,1,0.6c0.1,0,0.1,0,0.2,0
	c0.1,0,8.8-1.4,9-11.6c0.5,0.2,2.1,0.8,3.8,1.9c2,1.3,3.7,3.1,3.7,4.9c0,0.2,0,0.4-0.1,0.7c-0.1,0.4,0.1,0.8,0.3,1
	c0.2,0.1,0.3,0.2,0.6,0.3c0.1,0,0.2,0,0.3,0h0c0,0,0,0,0,0c0,0,0,0,0,0c0,0,0,0,0,0c0.2,0,0.4-0.1,0.6-0.2c0.2-0.2,0.3-0.4,0.4-0.6
	c0,0,0-0.1,0-0.1l0.9-4.4c1.2,0.2,3.4,0.8,5.5,2.1c3.2,2,6.4,5.4,6.4,12.2c0,1.7-0.2,3.6-0.7,5.7c-0.1,0.4,0,0.8,0.3,1
	c0.2,0.2,0.5,0.3,0.8,0.3c0.1,0,0.2,0,0.3,0c0.2,0,7.4-2,7.3-12.1c0-2.5-0.5-5.5-1.5-9.1c1.3,0.3,3.3,0.8,5.4,1.7
	c3.4,1.5,6.3,3.8,6.2,6.9c0,0.6,0.4,1,1,1.1c0,0,3.1,0.4,6.5,2.2c3.4,1.9,7,5,8,10.7c0.1,0.5,0.5,0.9,1,0.9c0,0,0,0,0.1,0
	c0.5,0,0.9-0.3,1.1-0.8c0-0.1,0.7-2.5,0.7-6.3C212,463.3,209.5,451.8,195.9,443.4z"/>
</svg>
